<?xml version="1.0" standalone="no"?>
<!DOCTYPE svg PUBLIC "-//W3C//DTD SVG 1.1//EN" "http://www.w3.org/Graphics/SVG/1.1/DTD/svg11.dtd" >
<svg xmlns="http://www.w3.org/2000/svg" xmlns:xlink="http://www.w3.org/1999/xlink" version="1.1">
<metadata>
Created by FontForge 20161013 at Mon Dec  5 21:11:17 2011
 By ,,,
Copyright (c) 2011 Fontstage (info@fontstage.com), with Reserved Font Name "Viga"
</metadata>
<defs>
<font id="Viga-Regular" horiz-adv-x="543" >
  <font-face 
    font-family="Viga"
    font-weight="400"
    font-stretch="normal"
    units-per-em="1000"
    panose-1="2 11 8 0 3 0 0 2 0 4"
    ascent="800"
    descent="-200"
    x-height="571"
    cap-height="712"
    bbox="-115 -329 1201 1015"
    underline-thickness="87"
    underline-position="-307"
    unicode-range="U+0020-FB04"
  />
<missing-glyph horiz-adv-x="483" 
d="M61 1v711h358v-711h-358z" />
    <glyph glyph-name=".notdef" horiz-adv-x="483" 
d="M61 1v711h358v-711h-358z" />
    <glyph glyph-name=".null" horiz-adv-x="0" 
 />
    <glyph glyph-name="nonmarkingreturn" horiz-adv-x="333" 
 />
    <glyph glyph-name="space" unicode=" " horiz-adv-x="232" 
 />
    <glyph glyph-name="exclam" unicode="!" horiz-adv-x="347" 
d="M273 712l-30 -432q-4 -28 -19.5 -43.5t-34.5 -15.5t-33.5 16t-14.5 43l-29 432h161zM275 69q0 -50 -15.5 -66t-65.5 -16t-66 16t-16 66t16 65.5t66 15.5t65.5 -15.5t15.5 -65.5z" />
    <glyph glyph-name="quotedbl" unicode="&#x22;" horiz-adv-x="464" 
d="M181 501h-103l-10 211h123zM386 501h-103l-10 211h123z" />
    <glyph glyph-name="numbersign" unicode="#" horiz-adv-x="691" 
d="M62 179v121h84l8 130h-68v121h76l10 167h139l-10 -167h125l10 167h139l-10 -167h69v-121h-77l-8 -130h61v-121h-68l-11 -179h-139l11 179h-125l-11 -179h-139l11 179h-77zM293 430l-8 -130h125l8 130h-125z" />
    <glyph glyph-name="dollar" unicode="$" horiz-adv-x="495" 
d="M190 -109v108q-73 14 -120.5 70t-47.5 157l126 6q0 -60 21.5 -87t72.5 -27q39 0 69.5 24t30.5 64q0 72 -68 85l-93 12q-70 13 -110.5 62t-40.5 137q0 82 43 138t117 72v74h101v-72q81 -13 128.5 -66.5t47.5 -131.5l-125 -6q-8 50 -32 68.5t-68 18.5q-31 0 -54.5 -27
t-23.5 -63q0 -33 20 -53.5t49 -25.5l65 -12q78 -13 130 -64.5t52 -141.5q0 -82 -56.5 -138t-132.5 -72v-109h-101z" />
    <glyph glyph-name="percent" unicode="%" horiz-adv-x="848" 
d="M269 471v111q0 27 -12.5 37t-38.5 10t-38.5 -10t-12.5 -37v-111q0 -27 12.5 -37t38.5 -10t38.5 10t12.5 37zM798 250v-139q0 -117 -145 -117t-145 117v139q0 117 145 117t145 -117zM704 125v111q0 27 -12.5 37t-38.5 10t-38.5 -10t-12.5 -37v-111q0 -27 12.5 -37
t38.5 -10t38.5 10t12.5 37zM363 596v-139q0 -117 -145 -117t-145 117v139q0 116 145 116h426l-337 -712h-102l300 634h-147q5 -18 5 -38z" />
    <glyph glyph-name="ampersand" unicode="&#x26;" horiz-adv-x="721" 
d="M434 299v106h269v-106h-92q2 -77 -8 -132t-29 -88.5t-52 -52.5t-70 -25.5t-91 -6.5q-130 0 -195.5 53.5t-65.5 148.5q0 54 17.5 97t66.5 81q-57 66 -57 165q0 95 58.5 141.5t165.5 46.5q120 0 178 -55t58 -171h-131q0 63 -20.5 84.5t-84.5 21.5q-44 0 -67 -24.5
t-23 -44.5q0 -59 25 -104q41 18 52 22l24 -111q-57 -24 -89.5 -55.5t-32.5 -86.5q0 -44 27.5 -66.5t93.5 -22.5q71 0 95 39.5t26 145.5h-48z" />
    <glyph glyph-name="quotesingle" unicode="'" horiz-adv-x="259" 
d="M181 501h-103l-10 211h123z" />
    <glyph glyph-name="parenleft" unicode="(" horiz-adv-x="336" 
d="M281 -7l-87 -87q-57 58 -106.5 183t-49.5 260q0 136 50 268t106 189l87 -87q-34 -43 -67.5 -150.5t-33.5 -218.5q0 -107 32.5 -211t68.5 -146z" />
    <glyph glyph-name="parenright" unicode=")" horiz-adv-x="336" 
d="M125 -94l-87 87q36 42 68.5 146t32.5 211q0 111 -33.5 218.5t-67.5 150.5l87 87q56 -57 106 -189t50 -268q0 -135 -49.5 -260t-106.5 -183z" />
    <glyph glyph-name="asterisk" unicode="*" horiz-adv-x="494" 
d="M440 461l-50 -76l-113 67l-13 -4l-54 -115l-86 36l70 123l-141 20l21 89l118 -25l-40 118l90 26l30 -122l85 84l66 -64l-110 -92z" />
    <glyph glyph-name="plus" unicode="+" 
d="M493 216h-160v-160h-122v160h-161v122h161v160h122v-160h160v-122z" />
    <glyph glyph-name="comma" unicode="," horiz-adv-x="279" 
d="M211 142v-105q0 -71 -45.5 -126.5t-97.5 -75.5v307h143z" />
    <glyph glyph-name="hyphen" unicode="-" horiz-adv-x="426" 
d="M367 225h-308v121h308v-121z" />
    <glyph glyph-name="period" unicode="." horiz-adv-x="295" 
d="M226 69q0 -50 -15.5 -66t-65.5 -16t-66 16t-16 66t16 65.5t66 15.5t65.5 -15.5t15.5 -65.5z" />
    <glyph glyph-name="slash" unicode="/" horiz-adv-x="403" 
d="M407 786l-285 -860h-122l285 860h122z" />
    <glyph glyph-name="zero" unicode="0" horiz-adv-x="567" 
d="M526 376v-41q0 -74 -5 -124t-20 -94t-42 -69.5t-70.5 -39.5t-105.5 -14t-105.5 14.5t-70.5 39.5t-42 69.5t-20 94.5t-5 125v38q0 80 5 132t19.5 95.5t42 67t70.5 36t106 12.5q140 0 191.5 -76t51.5 -266zM392 304v111q-1 99 -22 139t-87 40t-87 -39.5t-22 -135.5v-115
q1 -107 21 -146.5t88 -39.5q70 0 89 38t20 148z" />
    <glyph glyph-name="one" unicode="1" horiz-adv-x="438" 
d="M325 0h-136v584l-87 32v97h118q66 0 85.5 -24t19.5 -95v-594z" />
    <glyph glyph-name="two" unicode="2" horiz-adv-x="548" 
d="M490 0h-341q-44 0 -75 18t-31 60q0 19 8.5 38t17 30t29.5 34l107 119q2 2 18 20t23.5 26.5t24 29t25.5 33t22 31.5t20 33t12 29t5 27q0 26 -18.5 49.5t-65.5 23.5q-50 0 -68.5 -28t-18.5 -79h-131q0 51 8 87.5t30.5 69.5t69.5 50t117 17q105 0 162 -43t57 -123
q0 -49 -22.5 -101.5t-47.5 -84.5t-59 -71t-40 -47l-113 -131h275v-117z" />
    <glyph glyph-name="three" unicode="3" horiz-adv-x="535" 
d="M239 325l22 110l62 -29q38 48 38 125q0 20 -23.5 44t-69.5 24q-53 0 -71 -22t-18 -83h-122q0 115 52.5 169.5t158.5 54.5q218 0 218 -186q0 -109 -66 -177q76 -43 76 -163q0 -93 -59.5 -145.5t-168.5 -52.5q-105 0 -157.5 55t-52.5 147h127q0 -17 4.5 -33.5t23.5 -33
t51 -16.5q51 0 76.5 26.5t25.5 59.5q0 17 -3.5 30.5t-12.5 25t-15 19t-22.5 16.5t-22.5 12.5t-26.5 12t-24.5 10.5z" />
    <glyph glyph-name="four" unicode="4" horiz-adv-x="590" 
d="M550 153h-80v-153h-124v153h-207q-51 0 -76.5 21.5t-25.5 59.5q0 20 17 71t95 262h139l-109 -291h167v436h124v-436h80v-123z" />
    <glyph glyph-name="five" unicode="5" horiz-adv-x="551" 
d="M77 700h377v-111h-249v-112q154 0 211.5 -63t57.5 -193q0 -113 -58.5 -170t-169.5 -57q-105 0 -157.5 55t-52.5 147h127q0 -17 4.5 -33.5t23.5 -33t51 -16.5q53 0 77.5 29.5t24.5 76.5q0 33 -5.5 56t-23.5 47.5t-58.5 37t-102.5 12.5h-77v328z" />
    <glyph glyph-name="six" unicode="6" horiz-adv-x="549" 
d="M502 493l-123 1q-7 56 -26 78t-69 22q-70 0 -88.5 -42t-20.5 -165l113 49q118 0 169 -50.5t51 -170.5q0 -221 -233 -221q-115 0 -174.5 57.5t-59.5 170.5v153q0 80 5 132t19.5 95.5t42 67t70.5 36t106 12.5q218 0 218 -225zM278 116q101 0 101 98q0 58 -17 87t-71 29
l-117 -63q0 -82 23 -116.5t81 -34.5z" />
    <glyph glyph-name="seven" unicode="7" horiz-adv-x="553" 
d="M508 598l-263 -598h-140l263 588h-313v125h453v-115z" />
    <glyph glyph-name="eight" unicode="8" horiz-adv-x="560" 
d="M52 197q0 41 19 92t44 88q-53 51 -53 145q0 196 218 196q108 0 168 -48t60 -148q0 -102 -71 -186q71 -48 71 -139q0 -113 -56 -158t-172 -45q-111 0 -169.5 51.5t-58.5 151.5zM195 510q0 -33 32.5 -61t113.5 -66q43 54 43 123q0 42 -25 67.5t-76 25.5q-88 0 -88 -89z
M280 117q54 0 76 19t22 59q0 28 -39 62t-121 68q-36 -55 -36 -132q0 -34 25.5 -55t72.5 -21z" />
    <glyph glyph-name="nine" unicode="9" horiz-adv-x="549" 
d="M508 506v-285q0 -113 -58.5 -170t-169.5 -57q-105 0 -157.5 55t-52.5 147h127q0 -17 4.5 -33.5t23.5 -33t51 -16.5q53 0 77.5 29.5t24.5 76.5v105l-109 -62q-228 0 -228 241q0 121 57 171t176 50q120 0 177 -48.5t57 -169.5zM278 598q-101 0 -101 -98q0 -55 21.5 -85.5
t76.5 -30.5l107 63q0 82 -23 116.5t-81 34.5z" />
    <glyph glyph-name="colon" unicode=":" horiz-adv-x="319" 
d="M254 69q0 -50 -15.5 -66t-65.5 -16t-66 16t-16 66t16 65.5t66 15.5t65.5 -15.5t15.5 -65.5zM252 347q0 -50 -15.5 -66t-65.5 -16t-66 16t-16 66t16 65.5t66 15.5t65.5 -15.5t15.5 -65.5z" />
    <glyph glyph-name="semicolon" unicode=";" horiz-adv-x="309" 
d="M245 142v-105q0 -71 -45.5 -126.5t-97.5 -75.5v307h143zM252 347q0 -50 -15.5 -66t-65.5 -16t-66 16t-16 66t16 65.5t66 15.5t65.5 -15.5t15.5 -65.5z" />
    <glyph glyph-name="less" unicode="&#x3c;" horiz-adv-x="507" 
d="M441 170v-130l-385 189v106l385 188v-130l-252 -112z" />
    <glyph glyph-name="equal" unicode="=" 
d="M493 333h-443v122h443v-122zM493 116h-443v122h443v-122z" />
    <glyph glyph-name="greater" unicode="&#x3e;" horiz-adv-x="494" 
d="M56 40v130l252 111l-252 112v130l385 -188v-106z" />
    <glyph glyph-name="question" unicode="?" horiz-adv-x="523" 
d="M487 518q0 -19 -4.5 -37t-15.5 -37t-16.5 -27.5t-22 -30t-17.5 -22.5l-67 -69q-18 -23 -18 -51v-31h-130v40q0 67 38 104l48 44l14 13q14 12 21 20t18.5 22t16.5 30t5 33q0 50 -19.5 66t-61.5 16q-49 0 -71 -17t-22 -66q0 -50 31 -97l-101 -40q-32 39 -45 68.5t-13 68.5
q0 101 51 150.5t170 49.5q211 0 211 -200zM346 69q0 -50 -15.5 -66t-65.5 -16t-66 16t-16 66t16 65.5t66 15.5t65.5 -15.5t15.5 -65.5z" />
    <glyph glyph-name="at" unicode="@" horiz-adv-x="866" 
d="M838 348q0 -342 -157 -342q-46 0 -80 13t-49.5 33t-22.5 39t-7 37q0 16 2 38q-22 -69 -53.5 -97t-79.5 -28q-85 0 -133.5 60t-48.5 176q0 145 50.5 195.5t175.5 50.5h100l72 6v-323q0 -75 14 -109t60 -34q98 0 98 284q0 168 -82 239.5t-268 71.5q-172 0 -256.5 -86
t-84.5 -286q0 -178 93.5 -287t282.5 -109l-7 -59q-96 0 -171 25t-123 66.5t-79 101t-43.5 123.5t-12.5 139q0 122 27 207t81 133.5t125 70t168 21.5q209 0 309 -83.5t100 -286.5zM506 424h-71q-70 0 -94.5 -33.5t-24.5 -121.5q0 -68 24.5 -95t75.5 -27q32 0 61 47t29 110
v120z" />
    <glyph glyph-name="A" unicode="A" horiz-adv-x="638" 
d="M623 0h-145l-40 123h-239l-39 -123h-145l228 652q15 34 33.5 47t45.5 13t43.5 -12t29.5 -48zM406 240l-84 282l-88 -282h172z" />
    <glyph glyph-name="B" unicode="B" horiz-adv-x="658" 
d="M599 205q0 -99 -53.5 -152t-149.5 -53h-96q-118 0 -167.5 41t-49.5 142v529h301q102 0 153.5 -51t51.5 -144q0 -54 -27.5 -92t-60.5 -54q98 -46 98 -166zM450 512q0 76 -77 76h-151v-154h151q77 0 77 78zM460 212q0 48 -17 72.5t-61 24.5h-160v-112q0 -41 20.5 -57
t67.5 -16h72q78 0 78 88z" />
    <glyph glyph-name="C" unicode="C" horiz-adv-x="607" 
d="M443 276h129q0 -136 -68 -209t-192 -73q-273 0 -273 321v60q0 77 12.5 136t42.5 107.5t85 74t133 25.5q114 0 185.5 -62.5t71.5 -180.5h-130q-11 59 -39 89t-88 30q-38 0 -64 -13t-39.5 -30.5t-20.5 -50t-8.5 -56.5t-1.5 -65v-62q0 -35 1.5 -58.5t9.5 -52.5t21.5 -46.5
t39.5 -29.5t62 -12q70 0 96.5 38.5t34.5 119.5z" />
    <glyph glyph-name="D" unicode="D" horiz-adv-x="659" 
d="M620 359l1 -77q-4 -73 -18 -123t-55 -91q-68 -68 -198 -68q-153 0 -210 40.5t-57 146.5v525h277q120 0 188 -68q19 -19 32.5 -42.5t21 -41.5t11.5 -50t5 -46t1.5 -53.5t0.5 -51.5zM481 359q0 85 -5.5 123.5t-24.5 61.5q-36 44 -104 44h-125v-394q0 -40 27 -55t98 -15
q68 0 104 44q19 23 24.5 63.5t5.5 127.5z" />
    <glyph glyph-name="E" unicode="E" horiz-adv-x="605" 
d="M552 0h-252q-120 0 -168.5 41.5t-48.5 146.5v524h469v-124h-330v-167h231l-10 -124h-221v-99q0 -42 19 -58t69 -16h242v-124z" />
    <glyph glyph-name="F" unicode="F" horiz-adv-x="590" 
d="M552 588h-251q-44 0 -61.5 -17t-17.5 -59v-99h261l-10 -124h-251v-289h-139v567q0 79 34.5 112t118.5 33h316v-124z" />
    <glyph glyph-name="G" unicode="G" horiz-adv-x="637" 
d="M39 335v88q0 139 73 217t207 78q124 0 202 -78q55 -55 55 -165h-130q0 119 -127 119q-38 0 -64.5 -14.5t-39.5 -33.5t-20 -56t-8 -62t-1 -72q0 -37 0.5 -51.5t3 -47t8 -46.5t16 -36t26 -31.5t39 -17.5t54.5 -8q87 0 123 74v48h-86v116h205v-215q-31 -73 -98 -110
t-152 -37q-151 0 -218.5 84.5t-67.5 256.5z" />
    <glyph glyph-name="H" unicode="H" horiz-adv-x="685" 
d="M612 0h-139v288h-261v-288h-139v712h139v-301h261v301h139v-712z" />
    <glyph glyph-name="I" unicode="I" horiz-adv-x="305" 
d="M222 0h-139v712h139v-712z" />
    <glyph glyph-name="J" unicode="J" horiz-adv-x="511" 
d="M447 712v-458q0 -143 -59 -201.5t-171 -58.5q-72 0 -120.5 19t-89.5 60l78 85q17 -17 51.5 -28.5t69.5 -11.5q54 0 78 21.5t24 80.5v492h139z" />
    <glyph glyph-name="K" unicode="K" horiz-adv-x="665" 
d="M404 377l245 -377h-162l-168 269l-97 -130v-139h-139v712h139v-398l269 398h140z" />
    <glyph glyph-name="L" unicode="L" horiz-adv-x="550" 
d="M522 0h-212q-120 0 -173.5 46.5t-53.5 151.5v514h139v-514q0 -42 19 -58t69 -16h212v-124z" />
    <glyph glyph-name="M" unicode="M" horiz-adv-x="811" 
d="M609 425l-128 -270q-28 -54 -70 -54q-41 0 -69 57l-130 267v-425h-139v712h137l201 -411l200 411h137v-712h-139v425z" />
    <glyph glyph-name="N" unicode="N" horiz-adv-x="699" 
d="M638 712v-640q0 -33 -20 -56.5t-47 -23.5q-69 0 -113 80l-246 385v-457h-139v712h134l292 -466v466h139z" />
    <glyph glyph-name="O" unicode="O" horiz-adv-x="644" 
d="M605 389v-54q0 -179 -67.5 -260t-215.5 -81q-150 0 -216.5 81t-66.5 263v52q0 166 67.5 247t215.5 81q145 0 214 -82t69 -247zM466 338v37q0 51 -5 85.5t-19 67.5t-44 49.5t-76 16.5q-47 0 -77 -16.5t-44 -49.5t-18.5 -67.5t-4.5 -85.5v-37q0 -40 2 -65.5t10.5 -58
t23 -51t42 -32t66.5 -13.5q38 0 65 13t42 32t23.5 50t11 59t2.5 66z" />
    <glyph glyph-name="P" unicode="P" horiz-adv-x="628" 
d="M594 470q0 -119 -61.5 -180.5t-173.5 -61.5h-137v-228h-139v712h276q112 0 173.5 -61.5t61.5 -180.5zM455 470q0 118 -103 118h-130v-235h130q50 0 76.5 27t26.5 90z" />
    <glyph glyph-name="Q" unicode="Q" horiz-adv-x="643" 
d="M605 376v-41q0 -170 -85 -235q55 3 102 17v-123h-300q-62 0 -119 20.5t-94 57.5q-46 46 -58 104t-12 161v38q0 103 12 161t58 104q37 37 94 57.5t119 20.5t118.5 -20.5t93.5 -57.5q48 -48 59.5 -103t11.5 -161zM466 341v48q0 38 -1.5 62t-9.5 54.5t-22.5 47.5t-42.5 29
t-68 12q-41 0 -69 -12.5t-42.5 -29.5t-22 -49.5t-9 -58t-1.5 -69.5v-37q1 -106 16 -145q28 -75 128 -75q30 0 52.5 6.5t37.5 16t25.5 28t16 34t8.5 42.5t3.5 45.5t0.5 50.5z" />
    <glyph glyph-name="R" unicode="R" horiz-adv-x="654" 
d="M622 0h-161l-139 264h-100v-264h-139v559q0 80 37 116.5t124 36.5h118q106 0 168.5 -64.5t62.5 -163.5q0 -72 -37.5 -124.5t-92.5 -72.5zM454 484q0 48 -27.5 76t-73.5 28h-69q-62 0 -62 -63v-145h131q44 0 72.5 30.5t28.5 73.5z" />
    <glyph glyph-name="S" unicode="S" horiz-adv-x="591" 
d="M563 210q0 -101 -74 -158.5t-189 -57.5q-44 0 -88.5 12.5t-87 38t-69.5 73t-27 108.5l126 6q0 -54 46 -84t102 -30q125 0 125 88q0 72 -85 85l-116 12q-87 13 -138 62t-51 137q0 96 73 156t195 60q101 0 169 -56.5t68 -145.5l-124 -6q-17 87 -117 87q-61 0 -95.5 -26
t-34.5 -64q0 -33 25 -53.5t62 -25.5l114 -12q191 -26 191 -206z" />
    <glyph glyph-name="T" unicode="T" horiz-adv-x="571" 
d="M546 588h-191v-588h-139v588h-190v124h520v-124z" />
    <glyph glyph-name="U" unicode="U" horiz-adv-x="668" 
d="M606 712v-468q0 -116 -78.5 -183t-193.5 -67t-193.5 67t-78.5 183v468h139v-463q0 -66 36.5 -98.5t96.5 -32.5t97 32.5t37 98.5v463h138z" />
    <glyph glyph-name="V" unicode="V" horiz-adv-x="581" 
d="M578 712l-224 -672q-18 -46 -65 -45.5t-65 45.5l-221 672h144l143 -464l143 464h145z" />
    <glyph glyph-name="W" unicode="W" horiz-adv-x="887" 
d="M881 712l-191 -712h-116l-131 432l-131 -432h-116l-190 712h145l110 -449l109 371q18 83 76 83q29 0 44 -21.5t27 -61.5l108 -371l111 449h145z" />
    <glyph glyph-name="X" unicode="X" horiz-adv-x="640" 
d="M645 0h-172l-149 248l-147 -248h-172l239 365l-224 347h171l133 -230l135 230h170l-224 -347z" />
    <glyph glyph-name="Y" unicode="Y" horiz-adv-x="572" 
d="M569 712l-214 -420v-292h-138v292l-214 420h151l133 -287l131 287h151z" />
    <glyph glyph-name="Z" unicode="Z" horiz-adv-x="548" 
d="M508 0h-362q-55 0 -84 26t-29 67q0 43 31 89l280 406h-291v124h455v-110l-325 -478h325v-124z" />
    <glyph glyph-name="bracketleft" unicode="[" horiz-adv-x="378" 
d="M337 -74h-257v860h257v-117h-127v-626h127v-117z" />
    <glyph glyph-name="backslash" unicode="\" horiz-adv-x="403" 
d="M403 -74h-122l-281 847h122z" />
    <glyph glyph-name="bracketright" unicode="]" horiz-adv-x="378" 
d="M299 -74h-257v116h127v628h-127v116h257v-860z" />
    <glyph glyph-name="asciicircum" unicode="^" horiz-adv-x="602" 
d="M539 389h-136l-90 189l-25 -1l-89 -188h-136l178 330h120z" />
    <glyph glyph-name="underscore" unicode="_" horiz-adv-x="552" 
d="M552 -178h-552v87h552v-87z" />
    <glyph glyph-name="grave" unicode="`" horiz-adv-x="500" 
d="M176 676l-74 106h137l38 -106q4 -12 4 -22q0 -26 -28 -26q-43 0 -77 48z" />
    <glyph glyph-name="a" unicode="a" horiz-adv-x="534" 
d="M466 0h-87l-40 69l-139 -75q-58 0 -97 21t-59 62.5t-27.5 89t-7.5 114.5q0 36 1 60.5t5 57t11.5 54.5t21.5 45.5t33.5 37t49.5 22.5t68 9h137l130 8v-575zM336 182v268h-99q-55 0 -76.5 -42t-21.5 -127q0 -82 20.5 -116t77.5 -34z" />
    <glyph glyph-name="b" unicode="b" horiz-adv-x="560" 
d="M317 -1l-113 1q-75 0 -113.5 44t-38.5 105v603h130v-252l155 72q47 0 79.5 -13t52 -35.5t30.5 -60.5t14.5 -78t3.5 -99q0 -287 -200 -287zM215 111h64q108 0 108 175q0 89 -16.5 124t-71.5 35l-117 -63v-225q0 -40 33 -46z" />
    <glyph glyph-name="c" unicode="c" horiz-adv-x="519" 
d="M365 209l118 1q-1 -8 -2 -29t-1.5 -28.5t-2.5 -23.5t-4.5 -23.5t-6.5 -19t-9.5 -20t-13.5 -16.5q-25 -27 -75.5 -45.5t-106.5 -18.5q-55 0 -100 18t-71 46q-59 62 -59 238q0 165 59 227q26 28 71 46t100 18q108 0 164 -54t56 -150h-118q0 44 -22 65.5t-80 21.5
q-61 0 -80.5 -37t-19.5 -111v-52q0 -36 3 -60.5t12.5 -49t30.5 -37t54 -12.5q35 0 56.5 6.5t31 22.5t12.5 31.5t4 45.5z" />
    <glyph glyph-name="d" unicode="d" horiz-adv-x="561" 
d="M488 0h-87l-40 69l-139 -75q-58 0 -97 21t-59 62.5t-27.5 89t-7.5 114.5q0 36 1 60.5t5 57t11.5 54.5t21.5 45.5t33.5 37t49.5 22.5t68 9h137v185h130v-752zM358 182v268h-99q-55 0 -76.5 -42t-21.5 -127q0 -82 20.5 -116t77.5 -34z" />
    <glyph glyph-name="e" unicode="e" horiz-adv-x="548" 
d="M501 255h-333q0 -78 24.5 -114t98.5 -36q48 0 71 30.5t23 58.5h117q0 -107 -57.5 -157t-154.5 -50q-92 0 -144.5 27t-79.5 97t-27 195q0 141 61 206.5t186 65.5q217 0 217 -241q0 -26 -2 -82zM171 344h214q0 66 -25 96t-78 30q-50 0 -80.5 -30.5t-30.5 -95.5z" />
    <glyph glyph-name="f" unicode="f" horiz-adv-x="342" 
d="M315 450h-106v-450h-130v450h-54v99h54v55q0 61 39 105t113 44h84v-110h-61q-45 0 -45 -47v-47h106v-99z" />
    <glyph glyph-name="g" unicode="g" horiz-adv-x="555" 
d="M353 567l130 8v-549q0 -95 -53.5 -145.5t-158.5 -50.5q-40 0 -75 7.5t-67 24t-51 48.5t-19 76l121 6q0 -28 20 -40t69 -12q48 0 65.5 24t17.5 69l5 86l-140 -75q-57 0 -96.5 20.5t-59 58t-27.5 77.5t-8 91q0 36 1 60t5 55.5t11.5 52.5t21.5 43t33.5 35t49.5 21.5t68 8.5
h137zM353 232v218h-99q-56 0 -77 -38t-21 -121q0 -53 21.5 -81.5t76.5 -28.5z" />
    <glyph glyph-name="h" unicode="h" horiz-adv-x="569" 
d="M514 0h-130v358q0 92 -72 92l-124 -49v-401h-130v752h130v-249l165 74q88 0 124.5 -50t36.5 -140v-387z" />
    <glyph glyph-name="i" unicode="i" horiz-adv-x="275" 
d="M214 714q0 -47 -14.5 -61.5t-60.5 -14.5q-47 0 -61.5 15t-14.5 61t14.5 60.5t61.5 14.5t61 -14.5t14 -60.5zM203 0h-130v550h130v-550z" />
    <glyph glyph-name="j" unicode="j" horiz-adv-x="275" 
d="M203 550v-571q0 -61 -38.5 -105t-113.5 -44h-74v110h50q46 0 46 47v563h130zM214 714q0 -47 -14.5 -61.5t-60.5 -14.5q-47 0 -61.5 15t-14.5 61t14.5 60.5t61.5 14.5t61 -14.5t14 -60.5z" />
    <glyph glyph-name="k" unicode="k" horiz-adv-x="559" 
d="M564 0h-156l-150 202l-57 -81v-121h-130v752h130v-475l182 271h147l-187 -256z" />
    <glyph glyph-name="l" unicode="l" horiz-adv-x="265" 
d="M198 0l-130 -1v753h130v-752z" />
    <glyph glyph-name="m" unicode="m" horiz-adv-x="876" 
d="M809 0h-130v355q0 53 -12.5 74t-43.5 21l-117 -49v-401h-130v355q0 95 -66 95l-107 -49v-401h-130v571h97l30 -68l150 74q78 0 118 -76l186 76q78 0 116.5 -52.5t38.5 -141.5v-383z" />
    <glyph glyph-name="n" unicode="n" horiz-adv-x="573" 
d="M516 0h-130v365q0 49 -20 67t-56 18l-117 -49v-401h-130v571h97l30 -68l160 74q67 0 113 -46q53 -53 53 -148v-383z" />
    <glyph glyph-name="o" unicode="o" 
d="M382 258v52q0 74 -21.5 113t-89.5 39q-110 0 -110 -148v-52q0 -159 110 -159q36 0 59.5 14t34 39t14 48.5t3.5 53.5zM512 288q0 -58 -6 -101.5t-21.5 -83t-42.5 -64t-69.5 -39t-101.5 -14.5q-72 0 -120 21t-73.5 63t-36 94t-10.5 124q0 67 10.5 116.5t36 90.5t74 62.5
t119.5 21.5q134 0 187.5 -73.5t53.5 -217.5z" />
    <glyph glyph-name="p" unicode="p" horiz-adv-x="560" 
d="M529 301q0 -65 -9.5 -116t-33.5 -97t-71.5 -71.5t-115.5 -25.5l-96 62v-223h-130v737h256q116 0 158 -65.5t42 -200.5zM399 281q0 169 -108 169h-88v-265l88 -57q58 0 83 36.5t25 116.5z" />
    <glyph glyph-name="q" unicode="q" horiz-adv-x="561" 
d="M487 -169h-128l1 238l-139 -75q-58 0 -97 21t-59 62.5t-27.5 89t-7.5 114.5q0 36 1 60.5t5 57t11.5 54.5t21.5 45.5t33.5 37t49.5 22.5t68 9h137l130 8v-744zM357 182v268h-99q-55 0 -76.5 -42t-21.5 -127q0 -82 20.5 -116t77.5 -34z" />
    <glyph glyph-name="r" unicode="r" horiz-adv-x="390" 
d="M376 569l-36 -128q-57 22 -157 -37v-404h-130v571h97l30 -50l138 57q39 5 58 -9z" />
    <glyph glyph-name="s" unicode="s" horiz-adv-x="501" 
d="M465 158v-15q-6 -75 -63.5 -113t-143.5 -38q-37 0 -66.5 3.5t-60.5 14t-51.5 29t-33.5 49.5t-13 74v12h118q0 -46 24 -63t83 -17q80 0 80 58q0 13 -1.5 23t-7 21.5t-19 19.5t-33.5 12l-101 17q-132 21 -132 165q0 80 58.5 124.5t148.5 44.5q205 0 205 -177v-13h-113
q-2 47 -25 64t-66 17q-40 0 -61 -16.5t-21 -36.5q0 -57 46 -65l121 -22q128 -24 128 -172z" />
    <glyph glyph-name="t" unicode="t" horiz-adv-x="352" 
d="M317 0h-81q-74 0 -112.5 44t-38.5 105v300h-55v99h55v112h130v-112h92v-99h-92v-292q0 -47 45 -47h57v-110z" />
    <glyph glyph-name="u" unicode="u" horiz-adv-x="573" 
d="M500 0h-97l-30 68l-160 -74q-67 0 -113 46q-53 53 -53 148v383h130v-355q0 -95 76 -95l117 63v387h130v-571z" />
    <glyph glyph-name="v" unicode="v" horiz-adv-x="493" 
d="M489 571l-191 -571h-102l-192 571h137l106 -372l105 372h137z" />
    <glyph glyph-name="w" unicode="w" horiz-adv-x="759" 
d="M755 571l-159 -571h-107l-109 347l-109 -347h-107l-160 571h138l84 -372l87 306q15 66 68 66q25 0 40 -16t25 -50l88 -306l84 372h137z" />
    <glyph glyph-name="x" unicode="x" horiz-adv-x="527" 
d="M510 0h-146l-101 175l-95 -175h-156l185 291l-178 280h146l100 -165l97 165h146l-178 -280z" />
    <glyph glyph-name="y" unicode="y" horiz-adv-x="494" 
d="M490 571l-217 -635q-15 -43 -39 -67q-40 -40 -112 -40h-61v117h40q28 0 41.5 9.5t23.5 37.5l10 28l-172 550h137l102 -397l110 397h137z" />
    <glyph glyph-name="z" unicode="z" horiz-adv-x="478" 
d="M434 0h-311q-51 0 -78.5 21.5t-27.5 57.5q0 42 33 85l238 295h-238v112h394v-99l-284 -360h274v-112z" />
    <glyph glyph-name="braceleft" unicode="{" horiz-adv-x="457" 
d="M414 -74h-102q-75 0 -112 37q-42 42 -42 111l30 145q0 30 -13 53.5t-42 25.5q-20 0 -31 17t-11 40q0 24 11 41.5t31 17.5q27 0 41 24t14 55l-30 145q0 69 42 111q37 37 112 37h102v-117q-79 0 -102.5 -15.5t-23.5 -62.5l30 -115q0 -48 -22 -79t-47 -41q25 -10 47 -41
t22 -79l-30 -115q0 -30 7.5 -45t35 -24t83.5 -9v-117z" />
    <glyph glyph-name="bar" unicode="|" horiz-adv-x="350" 
d="M240 -74h-130v860h130v-860z" />
    <glyph glyph-name="braceright" unicode="}" horiz-adv-x="457" 
d="M175 -74h-102v117q56 0 83.5 9t35 24t7.5 45l-30 115q0 48 22 79t47 41q-25 10 -47 41t-22 79l30 115q0 47 -23.5 62.5t-102.5 15.5v117h102q75 0 112 -37q42 -42 42 -111l-30 -145q0 -31 14 -55t41 -24q20 0 31 -17.5t11 -41.5q0 -23 -11 -40t-31 -17q-29 -2 -42 -25.5
t-13 -53.5l30 -145q0 -69 -42 -111q-37 -37 -112 -37z" />
    <glyph glyph-name="asciitilde" unicode="~" horiz-adv-x="606" 
d="M486 363l83 -82q-47 -47 -83.5 -66.5t-81.5 -19.5q-53 0 -117 34q-46 24 -82 24q-44 0 -86 -42l-82 82q48 48 83.5 67t80.5 19q53 0 117 -34q46 -24 81 -24q45 0 87 42z" />
    <glyph glyph-name="nbspace" unicode="&#xa0;" horiz-adv-x="232" 
 />
    <glyph glyph-name="exclamdown" unicode="&#xa1;" horiz-adv-x="347" 
d="M234 262l30 -432h-161l29 432q0 27 14.5 43t33.5 16q18 0 34 -15.5t20 -43.5zM263 473q0 -50 -15.5 -66t-65.5 -16t-66 16t-16 66t16 65.5t66 15.5t65.5 -15.5t15.5 -65.5z" />
    <glyph glyph-name="cent" unicode="&#xa2;" horiz-adv-x="499" 
d="M218 -110v99q-47 8 -81 27t-54 45.5t-32 64t-16 75.5t-4 87q0 59 7 102t26 83t57.5 66t96.5 37v91h102v-93q79 -14 120 -65.5t41 -133.5h-118q0 44 -22 65.5t-80 21.5q-29 0 -48 -8t-29.5 -18.5t-15.5 -33t-6 -39.5t-1 -49v-52q0 -31 1 -48.5t6 -42t15 -37t30 -22
t48 -9.5q35 0 56.5 6.5t31 22.5t12.5 31.5t4 45.5l118 1q-4 -46 -7.5 -70t-13 -53t-26 -44t-45 -28.5t-71.5 -22.5v-102h-102z" />
    <glyph glyph-name="sterling" unicode="&#xa3;" horiz-adv-x="579" 
d="M524 0h-285q-83 0 -110.5 31.5t-27.5 118.5v147h-61v100h61v75q0 143 54.5 191.5t196.5 48.5q58 0 100.5 -17t81.5 -56l-91 -91q-40 40 -91 40q-64 0 -88.5 -29t-24.5 -93v-69h113v-100h-113v-124q0 -31 12 -40t50 -9h223v-124z" />
    <glyph glyph-name="currency" unicode="&#xa4;" horiz-adv-x="669" 
d="M610 96l-85 -86l-74 73q-54 -32 -117 -32q-62 0 -116 32l-74 -73l-86 86l74 73q-33 56 -33 117t33 117l-74 73l86 86l74 -73q54 32 116 32q63 0 117 -32l74 73l85 -86l-73 -73q32 -54 32 -117t-32 -117zM452 286q0 49 -34.5 83t-83.5 34t-83 -34t-34 -83t34 -83t83 -34
t83.5 34t34.5 83z" />
    <glyph glyph-name="yen" unicode="&#xa5;" horiz-adv-x="517" 
d="M395 96h-80v-97h-112v97h-77v95h77v70h-75v95h48l-156 356h132l108 -278l106 278h133l-157 -356h55v-95h-82v-70h80v-95z" />
    <glyph glyph-name="brokenbar" unicode="&#xa6;" horiz-adv-x="353" 
d="M240 436h-130v350h130v-350zM240 -74h-130v350h130v-350z" />
    <glyph glyph-name="section" unicode="&#xa7;" horiz-adv-x="531" 
d="M522 210q0 -122 -71 -197.5t-200 -75.5q-51 0 -91 9t-78.5 33t-61 72.5t-25.5 120.5h120q0 -50 40 -81t96 -31q53 0 87 28q-65 16 -109 47q-101 72 -149.5 164t-48.5 189q0 127 70 191.5t191 64.5q27 0 53.5 -4.5t56.5 -17t53 -32t41.5 -54t25.5 -79.5l-119 -9
q0 39 -33.5 57t-77.5 18q-61 0 -92 -28q126 -49 189 -102q67 -57 100 -124t33 -159zM302 246q37 -30 85 -42v11q0 113 -75 178q-57 49 -146 79q11 -129 136 -226z" />
    <glyph glyph-name="dieresis" unicode="&#xa8;" horiz-adv-x="500" 
d="M430 694q0 -39 -17.5 -53t-49.5 -14t-49.5 14t-17.5 53t17.5 53t49.5 14t49.5 -14t17.5 -53zM204 694q0 -39 -17.5 -53t-49.5 -14t-49.5 14t-17.5 53t17.5 53t49.5 14t49.5 -14t17.5 -53z" />
    <glyph glyph-name="copyright" unicode="&#xa9;" horiz-adv-x="844" 
d="M491 321h90q0 -84 -40 -129t-112 -45q-161 0 -161 186v33q0 93 36 146t125 53q67 0 109 -39.5t42 -113.5h-90q-11 65 -61 65q-22 0 -36 -8.5t-19.5 -26.5t-7 -33t-1.5 -41v-34q0 -22 1.5 -36t7.5 -30.5t19.5 -24.5t35.5 -8q33 0 46 21t16 65zM784 356q0 -188 -87 -275
t-275 -87t-275 87t-87 275t87 275t275 87t275 -87t87 -275zM744 356q0 165 -78.5 243.5t-243.5 78.5q-171 0 -241.5 -74t-70.5 -248t70.5 -248t241.5 -74q172 0 247 75t75 247z" />
    <glyph glyph-name="ordfeminine" unicode="&#xaa;" horiz-adv-x="454" 
d="M194 629q-69 0 -69 -43h-96q0 138 165 138q82 0 125.5 -40t43.5 -107v-280h-84l-20 42l-96 -45q-61 0 -100.5 34t-39.5 94q0 53 35 93t104 40h91q0 40 -13.5 57t-45.5 17zM253 431v47h-77q-24 0 -36.5 -12.5t-12.5 -32.5q0 -16 11 -30t30 -15z" />
    <glyph glyph-name="guillemotleft" unicode="&#xab;" horiz-adv-x="628" 
d="M283 27l-194 173q-42 47 -42 77q0 31 44 75l192 171v-155l-114 -93l114 -93v-155zM564 27l-194 173q-42 47 -42 77q0 31 44 75l192 171v-155l-114 -93l114 -93v-155z" />
    <glyph glyph-name="logicalnot" unicode="&#xac;" 
d="M497 90h-121v155h-320v115h441v-270z" />
    <glyph glyph-name="registered" unicode="&#xae;" horiz-adv-x="844" 
d="M784 356q0 -188 -87 -275t-275 -87t-275 87t-87 275t87 275t275 87t275 -87t87 -275zM744 356q0 165 -78.5 243.5t-243.5 78.5q-171 0 -241.5 -74t-70.5 -248t70.5 -248t241.5 -74q172 0 247 75t75 247zM596 160h-107l-74 140h-37v-140h-94v306q0 48 22 69.5t74 21.5h62
q61 0 96.5 -37t35.5 -94q0 -39 -18.5 -68t-47.5 -42q53 -93 88 -156zM481 426q0 21 -12 33.5t-32 12.5h-36q-23 0 -23 -25v-67h59q20 0 32 13.5t12 32.5z" />
    <glyph glyph-name="macron" unicode="&#xaf;" horiz-adv-x="500" 
d="M408 630h-316v87h316v-87z" />
    <glyph glyph-name="degree" unicode="&#xb0;" horiz-adv-x="478" 
d="M423 542q0 -103 -44 -143.5t-140 -40.5t-140 40.5t-44 143.5t44.5 144t139.5 41t139.5 -41t44.5 -144zM318 542q0 47 -18.5 63.5t-61.5 16.5q-42 0 -60 -16.5t-18 -63.5t18 -63.5t61 -16.5t61 16.5t18 63.5z" />
    <glyph glyph-name="plusminus" unicode="&#xb1;" 
d="M493 341h-160v-161h-122v161h-161v121h161v161h122v-161h160v-121zM493 0h-443v122h443v-122z" />
    <glyph glyph-name="twosuperior" unicode="&#xb2;" horiz-adv-x="358" 
d="M310 296h-198q-69 0 -69 52q0 27 28 57l74 82q72 80 72 111t-38 31q-23 0 -31 -15t-8 -44h-91q0 68 27 105.5t107 37.5q62 0 96 -26.5t34 -74.5q0 -33 -16.5 -68t-32.5 -55.5t-50.5 -58t-45.5 -50.5h142v-84z" />
    <glyph glyph-name="threesuperior" unicode="&#xb3;" horiz-adv-x="368" 
d="M154 477l16 80l40 -18q14 26 14 60q0 8 -10.5 18t-31.5 10q-25 0 -33.5 -12t-8.5 -47h-87q0 145 129 145q132 0 132 -114q0 -60 -32 -98q37 -31 37 -94q0 -56 -36.5 -88t-100.5 -32q-65 0 -96.5 36t-31.5 96h90q0 -47 36 -47q24 0 35.5 12t11.5 27q0 16 -9.5 28.5
t-18.5 17.5t-28 13z" />
    <glyph glyph-name="acute" unicode="&#xb4;" horiz-adv-x="500" 
d="M401 782l-74 -106q-34 -48 -77 -48q-28 0 -28 26q0 10 4 22l38 106h137z" />
    <glyph glyph-name="mu" unicode="&#xb5;" horiz-adv-x="555" 
d="M48 -140v299q-1 9 -1 29v383h130v-360q1 -47 22 -68.5t54 -21.5l117 63v387h130v-571h-97l-30 68l-160 -74q-19 0 -36 3v-36q0 -34 -28 -67.5t-60 -33.5h-41z" />
    <glyph glyph-name="mu" unicode="&#x3bc;" horiz-adv-x="555" 
d="M48 -140v299q-1 9 -1 29v383h130v-360q1 -47 22 -68.5t54 -21.5l117 63v387h130v-571h-97l-30 68l-160 -74q-19 0 -36 3v-36q0 -34 -28 -67.5t-60 -33.5h-41z" />
    <glyph glyph-name="paragraph" unicode="&#xb6;" horiz-adv-x="668" 
d="M355 665v-863h-130v409q-116 0 -158 51t-42 170q0 65 8 105t31.5 71t67.5 44t114 13h109zM425 -198v863q82 0 106 -22t24 -82v-647q0 -77 -22 -94.5t-108 -17.5z" />
    <glyph glyph-name="periodcentered" unicode="&#xb7;" horiz-adv-x="295" 
d="M226 290q0 -50 -15.5 -66t-65.5 -16t-66 16t-16 66t16 65.5t66 15.5t65.5 -15.5t15.5 -65.5z" />
    <glyph glyph-name="cedilla" unicode="&#xb8;" horiz-adv-x="500" 
d="M303 21l-18 -45q48 -13 48 -57q0 -41 -28.5 -65.5t-87.5 -24.5q-13 0 -47 4l21 51q18 -3 35 -3q41 0 41 31q0 34 -58 34l30 75h64z" />
    <glyph glyph-name="onesuperior" unicode="&#xb9;" horiz-adv-x="292" 
d="M212 282h-93v353l-56 19v59h85q40 0 52 -14.5t12 -57.5v-359z" />
    <glyph glyph-name="ordmasculine" unicode="&#xba;" horiz-adv-x="462" 
d="M407 504q0 -104 -40.5 -158t-135.5 -54q-93 0 -134.5 52.5t-41.5 159.5q0 104 40.5 158.5t135.5 54.5q93 0 134.5 -53t41.5 -160zM302 504q0 61 -12.5 90t-58.5 29q-43 0 -57 -27.5t-14 -91.5q0 -61 12.5 -89.5t58.5 -28.5q43 0 57 27t14 91z" />
    <glyph glyph-name="guillemotright" unicode="&#xbb;" horiz-adv-x="628" 
d="M347 523l194 -173q42 -47 42 -77q0 -31 -44 -75l-192 -171v155l114 93l-114 93v155zM66 523l194 -173q42 -47 42 -77q0 -31 -44 -75l-192 -171v155l114 93l-114 93v155z" />
    <glyph glyph-name="onequarter" unicode="&#xbc;" horiz-adv-x="836" 
d="M811 89h-47v-89h-92v89h-112q-69 0 -69 57q0 31 64 205h101l-58 -170h74v255h92v-255h47v-92zM625 712l-337 -712h-102l337 712h102zM220 282h-93v353l-56 19v59h85q40 0 52 -14.5t12 -57.5v-359z" />
    <glyph glyph-name="onehalf" unicode="&#xbd;" horiz-adv-x="862" 
d="M620 712l-337 -712h-101l337 712h101zM220 282h-93v353l-56 19v59h85q40 0 52 -14.5t12 -57.5v-359zM810 1h-198q-69 0 -69 52q0 27 28 57l74 82q72 80 72 111t-38 31q-23 0 -31 -15t-8 -44h-91q0 68 27 105.5t107 37.5q62 0 96 -26.5t34 -74.5q0 -33 -16.5 -68
t-32.5 -55.5t-50.5 -58t-45.5 -50.5h142v-84z" />
    <glyph glyph-name="threequarters" unicode="&#xbe;" horiz-adv-x="865" 
d="M657 712l-337 -712h-102l337 712h102zM154 477l16 80l40 -18q14 26 14 60q0 8 -10.5 18t-31.5 10q-25 0 -33.5 -12t-8.5 -47h-87q0 145 129 145q132 0 132 -114q0 -60 -32 -98q37 -31 37 -94q0 -56 -36.5 -88t-100.5 -32q-65 0 -96.5 36t-31.5 96h90q0 -47 36 -47
q24 0 35.5 12t11.5 27q0 16 -9.5 28.5t-18.5 17.5t-28 13zM811 89h-47v-89h-92v89h-112q-69 0 -69 57q0 31 64 205h101l-58 -170h74v255h92v-255h47v-92z" />
    <glyph glyph-name="questiondown" unicode="&#xbf;" horiz-adv-x="523" 
d="M38 3q0 19 4.5 37t15.5 37t16.5 27.5t22 30t17.5 22.5l67 69q18 23 18 51v31h130v-40q0 -67 -38 -104l-48 -44l-14 -12q-14 -13 -21 -21t-18.5 -22t-16.5 -30t-5 -33q0 -50 19.5 -66t61.5 -16q49 0 71 17t22 66q0 50 -31 97l101 40q32 -39 45 -68.5t13 -68.5
q0 -101 -51 -150.5t-170 -49.5q-211 0 -211 200zM179 452q0 50 15.5 66t65.5 16t66 -16t16 -66t-16 -65.5t-66 -15.5t-65.5 15.5t-15.5 65.5z" />
    <glyph glyph-name="Agrave" unicode="&#xc0;" horiz-adv-x="638" 
d="M623 0h-145l-40 123h-239l-39 -123h-145l228 652q15 34 33.5 47t45.5 13t43.5 -12t29.5 -48zM406 240l-84 262l-88 -262h172zM243 853l-74 106h137l38 -106q4 -12 4 -22q0 -26 -28 -26q-43 0 -77 48z" />
    <glyph glyph-name="Aacute" unicode="&#xc1;" horiz-adv-x="638" 
d="M623 0h-145l-40 123h-239l-39 -123h-145l228 652q15 34 33.5 47t45.5 13t43.5 -12t29.5 -48zM406 240l-84 262l-88 -262h172zM468 959l-74 -106q-34 -48 -77 -48q-28 0 -28 26q0 10 4 22l38 106h137z" />
    <glyph glyph-name="Acircumflex" unicode="&#xc2;" horiz-adv-x="638" 
d="M623 0h-145l-40 123h-239l-39 -123h-145l228 652q15 34 33.5 47t45.5 13t43.5 -12t29.5 -48zM406 240l-84 262l-88 -262h172zM317 885l-45 -56q-39 -48 -77 -48q-13 0 -21 9t-8 22q0 9 5 17l94 121h104l94 -121q5 -8 5 -17q0 -12 -8.5 -21.5t-20.5 -9.5q-38 0 -77 48z
" />
    <glyph glyph-name="Atilde" unicode="&#xc3;" horiz-adv-x="638" 
d="M623 0h-145l-40 123h-239l-39 -123h-145l228 652q15 34 33.5 47t45.5 13t43.5 -12t29.5 -48zM406 240l-84 262l-88 -262h172zM451 901l46 -50q-59 -59 -113 -59q-37 0 -77 23q-31 18 -60 18q-34 0 -61 -24l-50 52q33 33 58 46t54 13q39 0 77 -23q33 -19 66 -19
q36 0 60 23z" />
    <glyph glyph-name="Adieresis" unicode="&#xc4;" horiz-adv-x="638" 
d="M623 0h-145l-40 123h-239l-39 -123h-145l228 652q15 34 33.5 47t45.5 13t43.5 -12t29.5 -48zM406 240l-84 262l-88 -262h172zM497 871q0 -39 -17.5 -53t-49.5 -14t-49.5 14t-17.5 53t17.5 53t49.5 14t49.5 -14t17.5 -53zM271 871q0 -39 -17.5 -53t-49.5 -14t-49.5 14
t-17.5 53t17.5 53t49.5 14t49.5 -14t17.5 -53z" />
    <glyph glyph-name="Aring" unicode="&#xc5;" horiz-adv-x="638" 
d="M623 0h-145l-40 123h-239l-39 -123h-145l228 652q15 34 33.5 47t45.5 13t43.5 -12t29.5 -48zM406 240l-84 262l-88 -262h172zM448 884q0 -131 -131 -131t-131 131t131 131t131 -131zM375 884q0 36 -14.5 47t-43.5 11t-43.5 -11t-14.5 -47t15 -47.5t43 -11.5t43 11.5
t15 47.5z" />
    <glyph glyph-name="AE" unicode="&#xc6;" horiz-adv-x="979" 
d="M458 240v262l-162 -262h162zM927 0h-242q-96 0 -149 29t-70 94h-228l-74 -123h-145l439 712h469v-124h-330v-167h231l-20 -124h-211v-99q0 -42 19 -58t69 -16h242v-124z" />
    <glyph glyph-name="Ccedilla" unicode="&#xc7;" horiz-adv-x="576" 
d="M443 276h129q0 -126 -58.5 -198t-166.5 -82l-8 -20q48 -13 48 -57q0 -41 -28.5 -65.5t-87.5 -24.5q-13 0 -47 4l21 51q18 -3 35 -3q41 0 41 31q0 34 -58 34l19 49q-243 17 -243 320v60q0 77 12.5 136t42.5 107.5t85 74t133 25.5q114 0 185.5 -62.5t71.5 -180.5h-130
q-11 59 -39 89t-88 30q-38 0 -64 -13t-39.5 -30.5t-20.5 -50t-8.5 -56.5t-1.5 -65v-62q0 -35 1.5 -58.5t9.5 -52.5t21.5 -46.5t39.5 -29.5t62 -12q70 0 96.5 38.5t34.5 119.5z" />
    <glyph glyph-name="Egrave" unicode="&#xc8;" horiz-adv-x="605" 
d="M552 0h-242q-120 0 -173.5 46.5t-53.5 151.5v514h469v-124h-330v-167h231l-20 -124h-211v-99q0 -42 19 -58t69 -16h242v-124zM236 853l-74 106h137l38 -106q4 -12 4 -22q0 -26 -28 -26q-43 0 -77 48z" />
    <glyph glyph-name="Eacute" unicode="&#xc9;" horiz-adv-x="605" 
d="M552 0h-242q-120 0 -173.5 46.5t-53.5 151.5v514h469v-124h-330v-167h231l-20 -124h-211v-99q0 -42 19 -58t69 -16h242v-124zM460 959l-74 -106q-34 -48 -77 -48q-28 0 -28 26q0 10 4 22l38 106h137z" />
    <glyph glyph-name="Ecircumflex" unicode="&#xca;" horiz-adv-x="605" 
d="M552 0h-242q-120 0 -173.5 46.5t-53.5 151.5v514h469v-124h-330v-167h231l-20 -124h-211v-99q0 -42 19 -58t69 -16h242v-124zM310 885l-45 -56q-39 -48 -77 -48q-13 0 -21 9t-8 22q0 9 5 17l94 121h104l94 -121q5 -8 5 -17q0 -12 -8.5 -21.5t-20.5 -9.5q-38 0 -77 48z
" />
    <glyph glyph-name="Edieresis" unicode="&#xcb;" horiz-adv-x="605" 
d="M552 0h-242q-120 0 -173.5 46.5t-53.5 151.5v514h469v-124h-330v-167h231l-20 -124h-211v-99q0 -42 19 -58t69 -16h242v-124zM490 871q0 -39 -17.5 -53t-49.5 -14t-49.5 14t-17.5 53t17.5 53t49.5 14t49.5 -14t17.5 -53zM264 871q0 -39 -17.5 -53t-49.5 -14t-49.5 14
t-17.5 53t17.5 53t49.5 14t49.5 -14t17.5 -53z" />
    <glyph glyph-name="Igrave" unicode="&#xcc;" horiz-adv-x="305" 
d="M222 0h-139v712h139v-712zM105 853l-74 106h137l38 -106q4 -12 4 -22q0 -26 -28 -26q-43 0 -77 48z" />
    <glyph glyph-name="Iacute" unicode="&#xcd;" horiz-adv-x="305" 
d="M222 0h-139v712h139v-712zM280 959l-74 -106q-34 -48 -77 -48q-28 0 -28 26q0 10 4 22l38 106h137z" />
    <glyph glyph-name="Icircumflex" unicode="&#xce;" horiz-adv-x="305" 
d="M222 0h-139v712h139v-712zM151 885l-45 -56q-39 -48 -77 -48q-13 0 -21 9t-8 22q0 9 5 17l94 121h104l94 -121q5 -8 5 -17q0 -12 -8.5 -21.5t-20.5 -9.5q-38 0 -77 48z" />
    <glyph glyph-name="Idieresis" unicode="&#xcf;" horiz-adv-x="305" 
d="M222 0h-139v712h139v-712zM333 871q0 -39 -17.5 -53t-49.5 -14t-49.5 14t-17.5 53t17.5 53t49.5 14t49.5 -14t17.5 -53zM107 871q0 -39 -17.5 -53t-49.5 -14t-49.5 14t-17.5 53t17.5 53t49.5 14t49.5 -14t17.5 -53z" />
    <glyph glyph-name="Eth" unicode="&#xd0;" horiz-adv-x="682" 
d="M36 307v106h57v299h277q120 0 188 -68q19 -19 32.5 -42.5t21 -41.5t11.5 -50t5 -46t1.5 -53.5t0.5 -51.5l1 -77q-4 -73 -18 -123t-55 -91q-68 -68 -188 -68q-153 0 -215 45.5t-62 151.5v110h-57zM491 359q0 85 -5.5 123.5t-24.5 61.5q-36 44 -104 44h-125v-175h130v-106
h-130v-113q0 -40 27 -55t98 -15q68 0 104 44q19 23 24.5 63.5t5.5 127.5z" />
    <glyph glyph-name="Ntilde" unicode="&#xd1;" horiz-adv-x="712" 
d="M638 712v-640q0 -33 -20 -56.5t-47 -23.5q-69 0 -113 80l-246 385v-457h-139v712h134l292 -466v466h139zM490 901l46 -50q-59 -59 -113 -59q-37 0 -77 23q-31 18 -60 18q-34 0 -61 -24l-50 52q33 33 58 46t54 13q39 0 77 -23q33 -19 66 -19q36 0 60 23z" />
    <glyph glyph-name="Ograve" unicode="&#xd2;" horiz-adv-x="644" 
d="M605 389v-54q0 -179 -67.5 -260t-215.5 -81q-150 0 -216.5 80.5t-66.5 262.5v38q0 176 67.5 259.5t215.5 83.5q283 0 283 -329zM466 341v48q0 38 -1.5 62t-9.5 54.5t-22.5 47.5t-42.5 29t-68 12q-41 0 -69 -12.5t-42.5 -29.5t-22 -49.5t-9 -58t-1.5 -69.5v-37
q1 -106 16 -145q28 -75 128 -75q30 0 52.5 6.5t37.5 16t25.5 28t16 34t8.5 42.5t3.5 45.5t0.5 50.5zM248 853l-74 106h137l38 -106q4 -12 4 -22q0 -26 -28 -26q-43 0 -77 48z" />
    <glyph glyph-name="Oacute" unicode="&#xd3;" horiz-adv-x="644" 
d="M605 389v-54q0 -179 -67.5 -260t-215.5 -81q-150 0 -216.5 80.5t-66.5 262.5v38q0 176 67.5 259.5t215.5 83.5q283 0 283 -329zM466 341v48q0 38 -1.5 62t-9.5 54.5t-22.5 47.5t-42.5 29t-68 12q-41 0 -69 -12.5t-42.5 -29.5t-22 -49.5t-9 -58t-1.5 -69.5v-37
q1 -106 16 -145q28 -75 128 -75q30 0 52.5 6.5t37.5 16t25.5 28t16 34t8.5 42.5t3.5 45.5t0.5 50.5zM473 959l-74 -106q-34 -48 -77 -48q-28 0 -28 26q0 10 4 22l38 106h137z" />
    <glyph glyph-name="Ocircumflex" unicode="&#xd4;" horiz-adv-x="644" 
d="M605 389v-54q0 -179 -67.5 -260t-215.5 -81q-150 0 -216.5 80.5t-66.5 262.5v38q0 176 67.5 259.5t215.5 83.5q283 0 283 -329zM466 341v48q0 38 -1.5 62t-9.5 54.5t-22.5 47.5t-42.5 29t-68 12q-41 0 -69 -12.5t-42.5 -29.5t-22 -49.5t-9 -58t-1.5 -69.5v-37
q1 -106 16 -145q28 -75 128 -75q30 0 52.5 6.5t37.5 16t25.5 28t16 34t8.5 42.5t3.5 45.5t0.5 50.5zM322 885l-45 -56q-39 -48 -77 -48q-13 0 -21 9t-8 22q0 9 5 17l94 121h104l94 -121q5 -8 5 -17q0 -12 -8.5 -21.5t-20.5 -9.5q-38 0 -77 48z" />
    <glyph glyph-name="Otilde" unicode="&#xd5;" horiz-adv-x="644" 
d="M605 389v-54q0 -179 -67.5 -260t-215.5 -81q-150 0 -216.5 80.5t-66.5 262.5v38q0 176 67.5 259.5t215.5 83.5q283 0 283 -329zM466 341v48q0 38 -1.5 62t-9.5 54.5t-22.5 47.5t-42.5 29t-68 12q-41 0 -69 -12.5t-42.5 -29.5t-22 -49.5t-9 -58t-1.5 -69.5v-37
q1 -106 16 -145q28 -75 128 -75q30 0 52.5 6.5t37.5 16t25.5 28t16 34t8.5 42.5t3.5 45.5t0.5 50.5zM456 901l46 -50q-59 -59 -113 -59q-37 0 -77 23q-31 18 -60 18q-34 0 -61 -24l-50 52q33 33 58 46t54 13q39 0 77 -23q33 -19 66 -19q36 0 60 23z" />
    <glyph glyph-name="Odieresis" unicode="&#xd6;" horiz-adv-x="644" 
d="M605 389v-54q0 -179 -67.5 -260t-215.5 -81q-150 0 -216.5 80.5t-66.5 262.5v38q0 176 67.5 259.5t215.5 83.5q283 0 283 -329zM466 341v48q0 38 -1.5 62t-9.5 54.5t-22.5 47.5t-42.5 29t-68 12q-41 0 -69 -12.5t-42.5 -29.5t-22 -49.5t-9 -58t-1.5 -69.5v-37
q1 -106 16 -145q28 -75 128 -75q30 0 52.5 6.5t37.5 16t25.5 28t16 34t8.5 42.5t3.5 45.5t0.5 50.5zM502 871q0 -39 -17.5 -53t-49.5 -14t-49.5 14t-17.5 53t17.5 53t49.5 14t49.5 -14t17.5 -53zM276 871q0 -39 -17.5 -53t-49.5 -14t-49.5 14t-17.5 53t17.5 53t49.5 14
t49.5 -14t17.5 -53z" />
    <glyph glyph-name="multiply" unicode="&#xd7;" 
d="M494 145l-82 -82l-141 141l-140 -141l-82 82l141 141l-141 141l82 82l140 -141l141 141l82 -82l-141 -141z" />
    <glyph glyph-name="Oslash" unicode="&#xd8;" horiz-adv-x="661" 
d="M80 -45l46 98q-87 78 -87 285v52q0 166 67.5 247t215.5 81q59 0 110 -16l25 52h102l-45 -96q91 -79 91 -269v-54q0 -179 -67.5 -260t-215.5 -81q-66 0 -115 15l-25 -54h-102zM466 338v37q0 93 -19 142l-184 -390q24 -9 59 -9q38 0 65 13t42 32t23.5 50t11 59t2.5 66z
M178 375v-37q0 -95 17 -140l182 387q-23 9 -55 9q-47 0 -77 -16.5t-44 -49.5t-18.5 -67.5t-4.5 -85.5z" />
    <glyph glyph-name="Ugrave" unicode="&#xd9;" horiz-adv-x="668" 
d="M606 712v-468q0 -116 -78.5 -183t-193.5 -67t-193.5 67t-78.5 183v468h139v-463q0 -66 36.5 -98.5t96.5 -32.5t97 32.5t37 98.5v463h138zM260 853l-74 106h137l38 -106q4 -12 4 -22q0 -26 -28 -26q-43 0 -77 48z" />
    <glyph glyph-name="Uacute" unicode="&#xda;" horiz-adv-x="668" 
d="M606 712v-468q0 -116 -78.5 -183t-193.5 -67t-193.5 67t-78.5 183v468h139v-463q0 -66 36.5 -98.5t96.5 -32.5t97 32.5t37 98.5v463h138zM485 959l-74 -106q-34 -48 -77 -48q-28 0 -28 26q0 10 4 22l38 106h137z" />
    <glyph glyph-name="Ucircumflex" unicode="&#xdb;" horiz-adv-x="668" 
d="M606 712v-468q0 -116 -78.5 -183t-193.5 -67t-193.5 67t-78.5 183v468h139v-463q0 -66 36.5 -98.5t96.5 -32.5t97 32.5t37 98.5v463h138zM334 885l-45 -56q-39 -48 -77 -48q-13 0 -21 9t-8 22q0 9 5 17l94 121h104l94 -121q5 -8 5 -17q0 -12 -8.5 -21.5t-20.5 -9.5
q-38 0 -77 48z" />
    <glyph glyph-name="Udieresis" unicode="&#xdc;" horiz-adv-x="668" 
d="M606 712v-468q0 -116 -78.5 -183t-193.5 -67t-193.5 67t-78.5 183v468h139v-463q0 -66 36.5 -98.5t96.5 -32.5t97 32.5t37 98.5v463h138zM514 871q0 -39 -17.5 -53t-49.5 -14t-49.5 14t-17.5 53t17.5 53t49.5 14t49.5 -14t17.5 -53zM288 871q0 -39 -17.5 -53t-49.5 -14
t-49.5 14t-17.5 53t17.5 53t49.5 14t49.5 -14t17.5 -53z" />
    <glyph glyph-name="Yacute" unicode="&#xdd;" horiz-adv-x="572" 
d="M569 712l-214 -420v-292h-138v292l-214 420h151l133 -287l131 287h151zM436 959l-74 -106q-34 -48 -77 -48q-28 0 -28 26q0 10 4 22l38 106h137z" />
    <glyph glyph-name="Thorn" unicode="&#xde;" horiz-adv-x="633" 
d="M574 360q0 -222 -235 -222h-117v-138h-139v712h139v-131h117q124 0 179.5 -53.5t55.5 -167.5zM435 360q0 59 -20.5 78t-82.5 19h-110v-195h110q62 0 82.5 19.5t20.5 78.5z" />
    <glyph glyph-name="germandbls" unicode="&#xdf;" horiz-adv-x="600" 
d="M546 217q0 -227 -197 -227h-52v110h26q41 0 66.5 30.5t25.5 86.5q0 60 -36 93t-84 33v102q24 0 42 26t18 58q0 36 -18.5 56t-51.5 20q-48 0 -65 -27t-17 -77v-501h-130v511q0 207 212 207q200 0 200 -185q0 -43 -18 -77.5t-43 -49.5q122 -63 122 -189z" />
    <glyph glyph-name="agrave" unicode="&#xe0;" horiz-adv-x="534" 
d="M187 676l-74 106h137l38 -106q4 -12 4 -22q0 -26 -28 -26q-43 0 -77 48zM466 0h-87l-40 69l-139 -75q-58 0 -97 21t-59 62.5t-27.5 89t-7.5 114.5q0 36 1 60.5t5 57t11.5 54.5t21.5 45.5t33.5 37t49.5 22.5t68 9h137l130 8v-575zM336 182v268h-99q-55 0 -76.5 -42
t-21.5 -127q0 -82 20.5 -116t77.5 -34z" />
    <glyph glyph-name="aacute" unicode="&#xe1;" horiz-adv-x="534" 
d="M402 782l-74 -106q-34 -48 -77 -48q-28 0 -28 26q0 10 4 22l38 106h137zM466 0h-87l-40 69l-139 -75q-58 0 -97 21t-59 62.5t-27.5 89t-7.5 114.5q0 36 1 60.5t5 57t11.5 54.5t21.5 45.5t33.5 37t49.5 22.5t68 9h137l130 8v-575zM336 182v268h-99q-55 0 -76.5 -42
t-21.5 -127q0 -82 20.5 -116t77.5 -34z" />
    <glyph glyph-name="acircumflex" unicode="&#xe2;" horiz-adv-x="534" 
d="M261 718l-45 -56q-39 -48 -77 -48q-13 0 -21 9t-8 22q0 9 5 17l94 121h104l94 -121q5 -8 5 -17q0 -12 -8.5 -21.5t-20.5 -9.5q-38 0 -77 48zM466 0h-87l-40 69l-139 -75q-58 0 -97 21t-59 62.5t-27.5 89t-7.5 114.5q0 36 1 60.5t5 57t11.5 54.5t21.5 45.5t33.5 37
t49.5 22.5t68 9h137l130 8v-575zM336 182v268h-99q-55 0 -76.5 -42t-21.5 -127q0 -82 20.5 -116t77.5 -34z" />
    <glyph glyph-name="atilde" unicode="&#xe3;" horiz-adv-x="534" 
d="M395 724l46 -50q-59 -59 -113 -59q-37 0 -77 23q-31 18 -60 18q-34 0 -61 -24l-50 52q33 33 58 46t54 13q39 0 77 -23q33 -19 66 -19q36 0 60 23zM466 0h-87l-40 69l-139 -75q-58 0 -97 21t-59 62.5t-27.5 89t-7.5 114.5q0 36 1 60.5t5 57t11.5 54.5t21.5 45.5t33.5 37
t49.5 22.5t68 9h137l130 8v-575zM336 182v268h-99q-55 0 -76.5 -42t-21.5 -127q0 -82 20.5 -116t77.5 -34z" />
    <glyph glyph-name="adieresis" unicode="&#xe4;" horiz-adv-x="534" 
d="M441 694q0 -39 -17.5 -53t-49.5 -14t-49.5 14t-17.5 53t17.5 53t49.5 14t49.5 -14t17.5 -53zM215 694q0 -39 -17.5 -53t-49.5 -14t-49.5 14t-17.5 53t17.5 53t49.5 14t49.5 -14t17.5 -53zM466 0h-87l-40 69l-139 -75q-58 0 -97 21t-59 62.5t-27.5 89t-7.5 114.5
q0 36 1 60.5t5 57t11.5 54.5t21.5 45.5t33.5 37t49.5 22.5t68 9h137l130 8v-575zM336 182v268h-99q-55 0 -76.5 -42t-21.5 -127q0 -82 20.5 -116t77.5 -34z" />
    <glyph glyph-name="aring" unicode="&#xe5;" horiz-adv-x="534" 
d="M392 715q0 -131 -131 -131t-131 131t131 131t131 -131zM319 715q0 36 -14.5 47t-43.5 11t-43.5 -11t-14.5 -47t15 -47.5t43 -11.5t43 11.5t15 47.5zM466 0h-87l-40 69l-139 -75q-58 0 -97 21t-59 62.5t-27.5 89t-7.5 114.5q0 36 1 60.5t5 57t11.5 54.5t21.5 45.5t33.5 37
t49.5 22.5t68 9h137l130 8v-575zM336 182v268h-99q-55 0 -76.5 -42t-21.5 -127q0 -82 20.5 -116t77.5 -34z" />
    <glyph glyph-name="ae" unicode="&#xe6;" horiz-adv-x="854" 
d="M358 169v84h-123q-40 0 -61.5 -26.5t-21.5 -60.5q0 -28 19.5 -46.5t56.5 -18.5zM488 344h214q0 79 -23 105t-78 26q-54 0 -83.5 -27t-29.5 -104zM818 255h-330q0 -87 23 -123.5t97 -36.5q52 0 73 25.5t21 78.5h117q0 -113 -56.5 -163t-155.5 -49q-82 1 -133.5 22.5
t-78.5 73.5l-182 -88q-78 0 -130 44.5t-52 123.5q0 71 46.5 127t137.5 56h142q1 5 1 14v23q0 89 -97 89q-61 0 -86.5 -20.5t-25.5 -69.5h-108q0 96 55.5 146.5t164.5 50.5t169 -54q60 53 173 53q217 0 217 -241q0 -26 -2 -82z" />
    <glyph glyph-name="ccedilla" unicode="&#xe7;" horiz-adv-x="482" 
d="M365 209l118 1q-1 -8 -2 -29t-1.5 -28.5t-2.5 -23.5t-4.5 -23.5t-6.5 -19t-9.5 -20t-13.5 -16.5q-49 -51 -150 -62l-8 -21q48 -13 48 -57q0 -41 -28.5 -65.5t-87.5 -24.5q-13 0 -47 4l21 51q18 -3 35 -3q41 0 41 31q0 34 -58 34l20 51q-91 10 -139 62q-59 62 -59 238
q0 165 59 227q26 28 71 46t100 18q108 0 164 -54t56 -150h-118q0 44 -22 65.5t-80 21.5q-29 0 -48 -8t-29.5 -18.5t-15.5 -33t-6 -39.5t-1 -49v-52v-30.5t1 -28.5t4 -28t7.5 -23t11.5 -21t17.5 -14.5t25 -10.5t33.5 -3q35 0 56.5 6.5t31 22.5t12.5 31.5t4 45.5z" />
    <glyph glyph-name="egrave" unicode="&#xe8;" horiz-adv-x="548" 
d="M501 255h-330q0 -87 23 -123.5t97 -36.5q52 0 73 25.5t21 78.5h117q0 -113 -56.5 -163t-155.5 -49q-92 1 -144.5 28t-79.5 96.5t-27 194.5q0 141 61 206.5t186 65.5q217 0 217 -241q0 -26 -2 -82zM171 344h214q0 79 -23 105t-78 26q-54 0 -83.5 -27t-29.5 -104zM203 676
l-74 106h137l38 -106q4 -12 4 -22q0 -26 -28 -26q-43 0 -77 48z" />
    <glyph glyph-name="eacute" unicode="&#xe9;" horiz-adv-x="548" 
d="M501 255h-330q0 -87 23 -123.5t97 -36.5q52 0 73 25.5t21 78.5h117q0 -113 -56.5 -163t-155.5 -49q-92 1 -144.5 28t-79.5 96.5t-27 194.5q0 141 61 206.5t186 65.5q217 0 217 -241q0 -26 -2 -82zM171 344h214q0 79 -23 105t-78 26q-54 0 -83.5 -27t-29.5 -104zM428 782
l-74 -106q-34 -48 -77 -48q-28 0 -28 26q0 10 4 22l38 106h137z" />
    <glyph glyph-name="ecircumflex" unicode="&#xea;" horiz-adv-x="548" 
d="M501 255h-330q0 -87 23 -123.5t97 -36.5q52 0 73 25.5t21 78.5h117q0 -113 -56.5 -163t-155.5 -49q-92 1 -144.5 28t-79.5 96.5t-27 194.5q0 141 61 206.5t186 65.5q217 0 217 -241q0 -26 -2 -82zM171 344h214q0 79 -23 105t-78 26q-54 0 -83.5 -27t-29.5 -104zM277 718
l-45 -56q-39 -48 -77 -48q-13 0 -21 9t-8 22q0 9 5 17l94 121h104l94 -121q5 -8 5 -17q0 -12 -8.5 -21.5t-20.5 -9.5q-38 0 -77 48z" />
    <glyph glyph-name="edieresis" unicode="&#xeb;" horiz-adv-x="548" 
d="M501 255h-330q0 -87 23 -123.5t97 -36.5q52 0 73 25.5t21 78.5h117q0 -113 -56.5 -163t-155.5 -49q-92 1 -144.5 28t-79.5 96.5t-27 194.5q0 141 61 206.5t186 65.5q217 0 217 -241q0 -26 -2 -82zM171 344h214q0 79 -23 105t-78 26q-54 0 -83.5 -27t-29.5 -104zM457 694
q0 -39 -17.5 -53t-49.5 -14t-49.5 14t-17.5 53t17.5 53t49.5 14t49.5 -14t17.5 -53zM231 694q0 -39 -17.5 -53t-49.5 -14t-49.5 14t-17.5 53t17.5 53t49.5 14t49.5 -14t17.5 -53z" />
    <glyph glyph-name="igrave" unicode="&#xec;" horiz-adv-x="275" 
d="M203 0h-130v521h130v-521zM91 676l-74 106h137l38 -106q4 -12 4 -22q0 -26 -28 -26q-43 0 -77 48z" />
    <glyph glyph-name="iacute" unicode="&#xed;" horiz-adv-x="275" 
d="M203 0h-130v521h130v-521zM265 782l-74 -106q-34 -48 -77 -48q-28 0 -28 26q0 10 4 22l38 106h137z" />
    <glyph glyph-name="icircumflex" unicode="&#xee;" horiz-adv-x="275" 
d="M203 0h-130v521h130v-521zM140 718l-45 -56q-39 -48 -77 -48q-13 0 -21 9t-8 22q0 9 5 17l94 121h104l94 -121q5 -8 5 -17q0 -12 -8.5 -21.5t-20.5 -9.5q-38 0 -77 48z" />
    <glyph glyph-name="idieresis" unicode="&#xef;" horiz-adv-x="275" 
d="M203 0h-130v521h130v-521zM317 694q0 -39 -17.5 -53t-49.5 -14t-49.5 14t-17.5 53t17.5 53t49.5 14t49.5 -14t17.5 -53zM91 694q0 -39 -17.5 -53t-49.5 -14t-49.5 14t-17.5 53t17.5 53t49.5 14t49.5 -14t17.5 -53z" />
    <glyph glyph-name="eth" unicode="&#xf0;" horiz-adv-x="549" 
d="M358 152v278h-99q-98 0 -98 -159q0 -82 20.5 -116t77.5 -34q5 1 18 2t17 1.5t14 2.5t14.5 3.5t12 4.5t13 7.5t10.5 9.5zM249 582v76l63 21q-14 25 -46 73h130l23 -36l81 27v-76l-49 -17q37 -97 37 -220v-321q-101 -115 -229 -115q-72 0 -118.5 19.5t-69.5 59t-31.5 85
t-8.5 113.5q0 31 1 53.5t5 53.5t11.5 52.5t21.5 45t33.5 38t49.5 24t68 9.5h137q-5 33 -17 66z" />
    <glyph glyph-name="ntilde" unicode="&#xf1;" horiz-adv-x="573" 
d="M516 0h-130v365q0 49 -20 67t-56 18l-117 -49v-401h-130v571h97l30 -68l160 74q67 0 113 -46q53 -53 53 -148v-383zM424 732l46 -50q-59 -59 -113 -59q-37 0 -77 23q-31 18 -60 18q-34 0 -61 -24l-50 52q33 33 58 46t54 13q39 0 77 -23q33 -19 66 -19q36 0 60 23z" />
    <glyph glyph-name="ograve" unicode="&#xf2;" 
d="M383 258v52q0 35 -1 52t-6.5 40.5t-17 33.5t-33 18t-53.5 8q-67 0 -88.5 -36.5t-21.5 -111.5v-52q0 -36 3.5 -60t13.5 -49t33.5 -37.5t59.5 -12.5q32 0 54 9.5t33 22t16.5 36.5t6.5 40t1 47zM513 288q0 -58 -6 -101.5t-21.5 -83t-42.5 -64t-69.5 -39t-101.5 -14.5
q-72 0 -120 21t-73.5 63t-36 94t-10.5 124q0 67 10.5 116.5t36 90.5t74 62.5t119.5 21.5q134 0 187.5 -73.5t53.5 -217.5zM194 676l-74 106h137l38 -106q4 -12 4 -22q0 -26 -28 -26q-43 0 -77 48z" />
    <glyph glyph-name="oacute" unicode="&#xf3;" 
d="M384 258v52q0 35 -1 52t-6.5 40.5t-17 33.5t-33 18t-53.5 8q-67 0 -88.5 -36.5t-21.5 -111.5v-52q0 -36 3.5 -60t13.5 -49t33.5 -37.5t59.5 -12.5q32 0 54 9.5t33 22t16.5 36.5t6.5 40t1 47zM514 288q0 -58 -6 -101.5t-21.5 -83t-42.5 -64t-69.5 -39t-101.5 -14.5
q-72 0 -120 21t-73.5 63t-36 94t-10.5 124q0 67 10.5 116.5t36 90.5t74 62.5t119.5 21.5q134 0 187.5 -73.5t53.5 -217.5zM423 782l-74 -106q-34 -48 -77 -48q-28 0 -28 26q0 10 4 22l38 106h137z" />
    <glyph glyph-name="ocircumflex" unicode="&#xf4;" 
d="M381 258v52q0 35 -1 52t-6.5 40.5t-17 33.5t-33 18t-53.5 8q-67 0 -88.5 -36.5t-21.5 -111.5v-52q0 -36 3.5 -60t13.5 -49t33.5 -37.5t59.5 -12.5q32 0 54 9.5t33 22t16.5 36.5t6.5 40t1 47zM511 288q0 -58 -6 -101.5t-21.5 -83t-42.5 -64t-69.5 -39t-101.5 -14.5
q-72 0 -120 21t-73.5 63t-36 94t-10.5 124q0 67 10.5 116.5t36 90.5t74 62.5t119.5 21.5q134 0 187.5 -73.5t53.5 -217.5zM272 718l-45 -56q-39 -48 -77 -48q-13 0 -21 9t-8 22q0 9 5 17l94 121h104l94 -121q5 -8 5 -17q0 -12 -8.5 -21.5t-20.5 -9.5q-38 0 -77 48z" />
    <glyph glyph-name="otilde" unicode="&#xf5;" 
d="M383 258v52q0 35 -1 52t-6.5 40.5t-17 33.5t-33 18t-53.5 8q-67 0 -88.5 -36.5t-21.5 -111.5v-52q0 -36 3.5 -60t13.5 -49t33.5 -37.5t59.5 -12.5q32 0 54 9.5t33 22t16.5 36.5t6.5 40t1 47zM513 288q0 -58 -6 -101.5t-21.5 -83t-42.5 -64t-69.5 -39t-101.5 -14.5
q-72 0 -120 21t-73.5 63t-36 94t-10.5 124q0 67 10.5 116.5t36 90.5t74 62.5t119.5 21.5q134 0 187.5 -73.5t53.5 -217.5zM406 734l46 -50q-59 -59 -113 -59q-37 0 -77 23q-31 18 -60 18q-34 0 -61 -24l-50 52q33 33 58 46t54 13q39 0 77 -23q33 -19 66 -19q36 0 60 23z" />
    <glyph glyph-name="odieresis" unicode="&#xf6;" 
d="M383 258v52q0 35 -1 52t-6.5 40.5t-17 33.5t-33 18t-53.5 8q-67 0 -88.5 -36.5t-21.5 -111.5v-52q0 -36 3.5 -60t13.5 -49t33.5 -37.5t59.5 -12.5q32 0 54 9.5t33 22t16.5 36.5t6.5 40t1 47zM513 288q0 -58 -6 -101.5t-21.5 -83t-42.5 -64t-69.5 -39t-101.5 -14.5
q-72 0 -120 21t-73.5 63t-36 94t-10.5 124q0 67 10.5 116.5t36 90.5t74 62.5t119.5 21.5q134 0 187.5 -73.5t53.5 -217.5zM452 694q0 -39 -17.5 -53t-49.5 -14t-49.5 14t-17.5 53t17.5 53t49.5 14t49.5 -14t17.5 -53zM226 694q0 -39 -17.5 -53t-49.5 -14t-49.5 14t-17.5 53
t17.5 53t49.5 14t49.5 -14t17.5 -53z" />
    <glyph glyph-name="divide" unicode="&#xf7;" 
d="M497 225h-451v121h451v-121zM354 497q0 -50 -15.5 -66t-65.5 -16t-66 16t-16 66t16 65.5t66 15.5t65.5 -15.5t15.5 -65.5zM354 82q0 -50 -15.5 -66t-65.5 -16t-66 16t-16 66t16 65.5t66 15.5t65.5 -15.5t15.5 -65.5z" />
    <glyph glyph-name="oslash" unicode="&#xf8;" 
d="M512 288q0 -58 -6 -101.5t-21.5 -83t-42.5 -64t-69.5 -39t-101.5 -14.5q-36 0 -73 7l-18 -38h-97l34 72q-86 65 -86 261q0 67 10.5 116.5t36 90.5t74 62.5t119.5 21.5q59 0 101 -15l9 18h97l-31 -65q65 -68 65 -229zM161 314v-52q0 -75 16 -109l144 303q-21 6 -50 6
q-67 0 -88.5 -36.5t-21.5 -111.5zM382 258v52q0 46 -2 65l-129 -271q6 -1 20 -1q32 0 54 9.5t33 22t16.5 36.5t6.5 40t1 47z" />
    <glyph glyph-name="ugrave" unicode="&#xf9;" horiz-adv-x="573" 
d="M500 0h-97l-30 68l-160 -74q-67 0 -113 46q-53 53 -53 148v383h130v-355q0 -95 76 -95l117 63v387h130v-571zM209 676l-74 106h137l38 -106q4 -12 4 -22q0 -26 -28 -26q-43 0 -77 48z" />
    <glyph glyph-name="uacute" unicode="&#xfa;" horiz-adv-x="573" 
d="M500 0h-97l-30 68l-160 -74q-67 0 -113 46q-53 53 -53 148v383h130v-355q0 -95 76 -95l117 63v387h130v-571zM434 782l-74 -106q-34 -48 -77 -48q-28 0 -28 26q0 10 4 22l38 106h137z" />
    <glyph glyph-name="ucircumflex" unicode="&#xfb;" horiz-adv-x="573" 
d="M500 0h-97l-30 68l-160 -74q-67 0 -113 46q-53 53 -53 148v383h130v-355q0 -95 76 -95l117 63v387h130v-571zM283 718l-45 -56q-39 -48 -77 -48q-13 0 -21 9t-8 22q0 9 5 17l94 121h104l94 -121q5 -8 5 -17q0 -12 -8.5 -21.5t-20.5 -9.5q-38 0 -77 48z" />
    <glyph glyph-name="udieresis" unicode="&#xfc;" horiz-adv-x="573" 
d="M500 0h-97l-30 68l-160 -74q-67 0 -113 46q-53 53 -53 148v383h130v-355q0 -95 76 -95l117 63v387h130v-571zM463 694q0 -39 -17.5 -53t-49.5 -14t-49.5 14t-17.5 53t17.5 53t49.5 14t49.5 -14t17.5 -53zM237 694q0 -39 -17.5 -53t-49.5 -14t-49.5 14t-17.5 53t17.5 53
t49.5 14t49.5 -14t17.5 -53z" />
    <glyph glyph-name="yacute" unicode="&#xfd;" horiz-adv-x="538" 
d="M510 571l-217 -635q-15 -43 -39 -67q-40 -40 -112 -40h-61v117h40q28 0 41.5 9.5t23.5 37.5l10 28l-172 550h137l102 -397l110 397h137zM415 782l-74 -106q-34 -48 -77 -48q-28 0 -28 26q0 10 4 22l38 106h137z" />
    <glyph glyph-name="thorn" unicode="&#xfe;" horiz-adv-x="562" 
d="M529 261q0 -48 -2 -78.5t-8 -64.5t-19.5 -54t-35 -37.5t-55.5 -25t-80 -7.5l-126 72v-257h-130v942h130v-276q47 52 126 52q55 0 92 -11t58.5 -29t32.5 -54t14 -73t3 -99zM399 261q0 86 -19.5 117.5t-88.5 31.5h-88v-239l88 -50q69 0 88.5 30.5t19.5 109.5z" />
    <glyph glyph-name="ydieresis" unicode="&#xff;" horiz-adv-x="494" 
d="M490 571l-217 -635q-15 -43 -39 -67q-40 -40 -112 -40h-61v117h40q28 0 41.5 9.5t23.5 37.5l10 28l-172 550h137l102 -397l110 397h137zM424 694q0 -39 -17.5 -53t-49.5 -14t-49.5 14t-17.5 53t17.5 53t49.5 14t49.5 -14t17.5 -53zM198 694q0 -39 -17.5 -53t-49.5 -14
t-49.5 14t-17.5 53t17.5 53t49.5 14t49.5 -14t17.5 -53z" />
    <glyph glyph-name="hbar" unicode="&#x127;" horiz-adv-x="587" 
d="M295 594h-89v-91l165 74q88 0 124.5 -50t36.5 -140v-387h-130v358q0 92 -72 92l-124 -49v-401h-130v594h-77v87h77v71h130v-71h89v-87z" />
    <glyph glyph-name="Itilde" unicode="&#x128;" horiz-adv-x="305" 
d="M287 901l46 -50q-59 -59 -113 -59q-37 0 -77 23q-31 18 -60 18q-34 0 -61 -24l-50 52q33 33 58 46t54 13q39 0 77 -23q33 -19 66 -19q36 0 60 23zM222 0h-139v712h139v-712z" />
    <glyph glyph-name="itilde" unicode="&#x129;" horiz-adv-x="275" 
d="M272 724l46 -50q-59 -59 -113 -59q-37 0 -77 23q-31 18 -60 18q-34 0 -61 -24l-50 52q33 33 58 46t54 13q39 0 77 -23q33 -19 66 -19q36 0 60 23zM203 0h-130v521h130v-521z" />
    <glyph glyph-name="dotlessi" unicode="&#x131;" horiz-adv-x="275" 
d="M203 0h-130v521h130v-521z" />
    <glyph glyph-name="IJ" unicode="&#x132;" horiz-adv-x="816" 
d="M222 0h-139v712h139v-712zM752 712v-458q0 -143 -59 -201.5t-171 -58.5q-72 0 -120.5 19t-89.5 60l78 85q17 -17 51.5 -28.5t69.5 -11.5q54 0 78 21.5t24 80.5v492h139z" />
    <glyph glyph-name="ij" unicode="&#x133;" horiz-adv-x="550" 
d="M478 550v-571q0 -61 -38.5 -105t-113.5 -44h-74v110h50q46 0 46 47v563h130zM489 714q0 -47 -14.5 -61.5t-60.5 -14.5t-61 15t-15 61t14.5 60.5t61.5 14.5q46 0 60.5 -14.5t14.5 -60.5zM214 714q0 -47 -14.5 -61.5t-60.5 -14.5q-47 0 -61.5 15t-14.5 61t14.5 60.5
t61.5 14.5t61 -14.5t14 -60.5zM203 0h-130v550h130v-550z" />
    <glyph glyph-name="Jcircumflex" unicode="&#x134;" horiz-adv-x="535" 
d="M385 884l-45 -56q-39 -48 -77 -48q-13 0 -21 9t-8 22q0 9 5 17l94 121h104l94 -121q5 -8 5 -17q0 -12 -8.5 -21.5t-20.5 -9.5q-38 0 -77 48zM447 712v-458q0 -143 -59 -201.5t-171 -58.5q-72 0 -120.5 19t-89.5 60l78 85q17 -17 51.5 -28.5t69.5 -11.5q54 0 78 21.5
t24 80.5v492h139z" />
    <glyph glyph-name="jcircumflex" unicode="&#x135;" horiz-adv-x="275" 
d="M138 718l-45 -56q-39 -48 -77 -48q-13 0 -21 9t-8 22q0 9 5 17l94 121h104l94 -121q5 -8 5 -17q0 -12 -8.5 -21.5t-20.5 -9.5q-38 0 -77 48zM203 550v-571q0 -61 -38.5 -105t-113.5 -44h-74v110h50q46 0 46 47v563h130z" />
    <glyph glyph-name="kcommaaccent" unicode="&#x137;" horiz-adv-x="559" 
d="M356 -60v-85q0 -59 -42.5 -111t-90.5 -71v267h133zM564 0h-156l-150 202l-57 -81v-121h-130v752h130v-475l182 271h147l-187 -256z" />
    <glyph glyph-name="kgreenlandic" unicode="&#x138;" horiz-adv-x="559" 
d="M564 0h-156l-143 195q-10 -11 -20.5 -27t-15.5 -25.5t-16 -33.5t-12 -27v-82h-130v571h130v-294q22 58 75.5 125.5t115.5 123.5h167q-60 -40 -126.5 -110.5t-88.5 -114.5z" />
    <glyph glyph-name="Ldotaccent" unicode="&#x13f;" horiz-adv-x="594" 
d="M522 0h-212q-120 0 -173.5 46.5t-53.5 151.5v514h139v-514q0 -42 19 -58t69 -16h212v-124zM487 420q0 -42 -13 -55.5t-56 -13.5q-42 0 -55.5 13.5t-13.5 55.5q0 43 13.5 56t55.5 13q43 0 56 -13t13 -56z" />
    <glyph glyph-name="ldot" unicode="&#x140;" horiz-adv-x="462" 
d="M426 404q0 -50 -15.5 -66t-65.5 -16t-66 16t-16 66t16 65.5t66 15.5t65.5 -15.5t15.5 -65.5zM198 0l-130 -1v753h130v-752z" />
    <glyph glyph-name="Lslash" unicode="&#x141;" horiz-adv-x="593" 
d="M542 0h-212q-120 0 -173.5 46.5t-53.5 151.5v57l-66 -42v116l66 41v342h139v-254l126 80v-115l-126 -80v-145q0 -42 19 -58t69 -16h212v-124z" />
    <glyph glyph-name="lslash" unicode="&#x142;" horiz-adv-x="308" 
d="M214 0l-130 -1v323l-54 -33v109l54 34v320h130v-242l60 37v-109l-60 -38v-400z" />
    <glyph glyph-name="Nacute" unicode="&#x143;" horiz-adv-x="699" 
d="M509 950l-74 -106q-34 -48 -77 -48q-28 0 -28 26q0 10 4 22l38 106h137zM638 712v-640q0 -33 -20 -56.5t-47 -23.5q-69 0 -113 80l-246 385v-457h-139v712h134l292 -466v466h139z" />
    <glyph glyph-name="nacute" unicode="&#x144;" horiz-adv-x="573" 
d="M412 782l-74 -106q-34 -48 -77 -48q-28 0 -28 26q0 10 4 22l38 106h137zM516 0h-130v365q0 49 -20 67t-56 18l-117 -49v-401h-130v571h97l30 -68l160 74q67 0 113 -46q53 -53 53 -148v-383z" />
    <glyph glyph-name="OE" unicode="&#x152;" horiz-adv-x="966" 
d="M466 341v48q0 38 -1.5 62t-9.5 54.5t-22.5 47.5t-42.5 29t-68 12q-41 0 -69 -12.5t-42.5 -29.5t-22 -49.5t-9 -58t-1.5 -69.5v-37q1 -106 16 -145q28 -75 128 -75q30 0 52.5 6.5t37.5 16t25.5 28t16 34t8.5 42.5t3.5 45.5t0.5 50.5zM934 0h-242q-127 0 -178 50
q-66 -56 -192 -56q-150 0 -216.5 80.5t-66.5 262.5v38q0 175 67 256t216 81h612v-124h-330v-167h231l-20 -124h-211v-99q0 -42 19 -58t69 -16h242v-124z" />
    <glyph glyph-name="oe" unicode="&#x153;" horiz-adv-x="881" 
d="M382 258v52q0 35 -1 52t-6.5 40.5t-17 33.5t-33 18t-53.5 8q-67 0 -88.5 -36.5t-21.5 -111.5v-52q0 -36 3.5 -60t13.5 -49t33.5 -37.5t59.5 -12.5q32 0 54 9.5t33 22t16.5 36.5t6.5 40t1 47zM512 344h214q0 79 -23 105t-78 26q-54 0 -83.5 -27t-29.5 -104zM842 255h-330
q0 -87 23 -123.5t97 -36.5q52 0 73 25.5t21 78.5h117q0 -113 -56.5 -163t-155.5 -49q-131 2 -185 57q-56 -58 -175 -58q-72 0 -120 21t-73.5 63t-36 94t-10.5 124q0 67 10.5 116.5t36 90.5t74 62.5t119.5 21.5q117 0 175 -61q60 60 181 60q217 0 217 -241q0 -26 -2 -82z" />
    <glyph glyph-name="Racute" unicode="&#x154;" horiz-adv-x="654" 
d="M457 959l-74 -106q-34 -48 -77 -48q-28 0 -28 26q0 10 4 22l38 106h137zM622 0h-161l-139 264h-100v-264h-139v559q0 80 37 116.5t124 36.5h118q106 0 168.5 -64.5t62.5 -163.5q0 -72 -37.5 -124.5t-92.5 -72.5zM454 484q0 48 -27.5 76t-73.5 28h-69q-62 0 -62 -63v-145
h131q44 0 72.5 30.5t28.5 73.5z" />
    <glyph glyph-name="Rcommaaccent" unicode="&#x156;" horiz-adv-x="654" 
d="M622 0h-161l-139 264h-100v-264h-139v559q0 80 37 116.5t124 36.5h118q106 0 168.5 -64.5t62.5 -163.5q0 -72 -37.5 -124.5t-92.5 -72.5zM454 484q0 48 -27.5 76t-73.5 28h-69q-62 0 -62 -63v-145h131q44 0 72.5 30.5t28.5 73.5zM394 -62v-85q0 -59 -42.5 -111t-90.5 -71
v267h133z" />
    <glyph glyph-name="rcommaaccent" unicode="&#x157;" horiz-adv-x="390" 
d="M376 569l-36 -128q-57 22 -157 -37v-404h-130v571h97l30 -50l138 57q39 5 58 -9zM188 -59v-85q0 -59 -42.5 -111t-90.5 -71v267h133z" />
    <glyph glyph-name="Rcaron" unicode="&#x158;" horiz-adv-x="654" 
d="M327 847l45 56q39 48 77 48q13 0 21 -9t8 -22q0 -9 -5 -17l-94 -121h-104l-94 121q-5 8 -5 17q0 12 8.5 21.5t20.5 9.5q38 0 77 -48zM622 0h-161l-139 264h-100v-264h-139v559q0 80 37 116.5t124 36.5h118q106 0 168.5 -64.5t62.5 -163.5q0 -72 -37.5 -124.5t-92.5 -72.5
zM454 484q0 48 -27.5 76t-73.5 28h-69q-62 0 -62 -63v-145h131q44 0 72.5 30.5t28.5 73.5z" />
    <glyph glyph-name="rcaron" unicode="&#x159;" horiz-adv-x="390" 
d="M195 678l45 56q39 48 77 48q13 0 21 -9t8 -22q0 -9 -5 -17l-94 -121h-104l-94 121q-5 8 -5 17q0 12 8.5 21.5t20.5 9.5q38 0 77 -48zM376 569l-36 -128q-57 22 -157 -37v-404h-130v571h97l30 -50l138 57q39 5 58 -9z" />
    <glyph glyph-name="Scaron" unicode="&#x160;" horiz-adv-x="591" 
d="M563 210q0 -99 -83 -157.5t-201 -58.5q-43 0 -85 12.5t-80.5 38t-62 72.5t-23.5 109l126 6q0 -55 37 -84.5t90 -29.5q64 0 105 23.5t41 64.5q0 72 -85 85l-116 12q-87 13 -138 62t-51 137q0 96 71.5 156t186.5 60q103 0 180 -57t77 -145l-124 -6q-6 32 -31.5 53
t-51.5 27.5t-54 6.5q-54 0 -87 -26t-33 -64q0 -33 25 -53.5t62 -25.5l114 -12q191 -26 191 -206zM294 845l45 56q39 48 77 48q13 0 21 -9t8 -22q0 -9 -5 -17l-94 -121h-104l-94 121q-5 8 -5 17q0 12 8.5 21.5t20.5 9.5q38 0 77 -48z" />
    <glyph glyph-name="scaron" unicode="&#x161;" horiz-adv-x="501" 
d="M471 152q-3 -78 -64 -119t-150 -41q-37 0 -65.5 3t-59 13.5t-50 29t-32 50.5t-12.5 77l118 5q1 -45 24 -60.5t77 -15.5q86 0 86 62q0 64 -64 73l-101 13q-139 17 -139 171q0 78 62 122t153 44q40 0 74.5 -7.5t67.5 -26t52 -56t19 -91.5l-113 -5q-7 77 -101 77
q-44 0 -66 -17.5t-22 -39.5q0 -56 48 -63l122 -17q136 -18 136 -181zM250 678l45 56q39 48 77 48q13 0 21 -9t8 -22q0 -9 -5 -17l-94 -121h-104l-94 121q-5 8 -5 17q0 12 8.5 21.5t20.5 9.5q38 0 77 -48z" />
    <glyph glyph-name="Ydieresis" unicode="&#x178;" horiz-adv-x="572" 
d="M569 712l-214 -420v-292h-138v292l-214 420h151l133 -287l131 287h151zM465 871q0 -39 -17.5 -53t-49.5 -14t-49.5 14t-17.5 53t17.5 53t49.5 14t49.5 -14t17.5 -53zM239 871q0 -39 -17.5 -53t-49.5 -14t-49.5 14t-17.5 53t17.5 53t49.5 14t49.5 -14t17.5 -53z" />
    <glyph glyph-name="Zcaron" unicode="&#x17d;" horiz-adv-x="548" 
d="M508 0h-362q-55 0 -84 26t-29 67q0 43 31 89l280 406h-291v124h455v-110l-325 -478h325v-124zM277 845l45 56q39 48 77 48q13 0 21 -9t8 -22q0 -9 -5 -17l-94 -121h-104l-94 121q-5 8 -5 17q0 12 8.5 21.5t20.5 9.5q38 0 77 -48z" />
    <glyph glyph-name="zcaron" unicode="&#x17e;" horiz-adv-x="478" 
d="M434 0h-311q-51 0 -78.5 21.5t-27.5 57.5q0 42 33 85l228 295h-228v112h384v-99l-274 -360h274v-112zM242 678l45 56q39 48 77 48q13 0 21 -9t8 -22q0 -9 -5 -17l-94 -121h-104l-94 121q-5 8 -5 17q0 12 8.5 21.5t20.5 9.5q38 0 77 -48z" />
    <glyph glyph-name="florin" unicode="&#x192;" horiz-adv-x="376" 
d="M335 417h-106l-96 -586h-129l95 586h-90l15 99h90l14 88q10 62 55 105.5t119 43.5h84l-18 -110h-61q-42 0 -50 -47l-13 -80h106z" />
    <glyph glyph-name="circumflex" unicode="&#x2c6;" horiz-adv-x="500" 
d="M250 708l-45 -56q-39 -48 -77 -48q-13 0 -21 9t-8 22q0 9 5 17l94 121h104l94 -121q5 -8 5 -17q0 -12 -8.5 -21.5t-20.5 -9.5q-38 0 -77 48z" />
    <glyph glyph-name="caron" unicode="&#x2c7;" horiz-adv-x="500" 
d="M250 668l45 56q39 48 77 48q13 0 21 -9t8 -22q0 -9 -5 -17l-94 -121h-104l-94 121q-5 8 -5 17q0 12 8.5 21.5t20.5 9.5q38 0 77 -48z" />
    <glyph glyph-name="breve" unicode="&#x2d8;" horiz-adv-x="500" 
d="M327 779h87q-4 -77 -49 -114t-114 -37q-70 0 -115.5 37t-49.5 114h88q7 -60 77 -60q69 0 76 60z" />
    <glyph glyph-name="dotaccent" unicode="&#x2d9;" horiz-adv-x="500" 
d="M315 687q0 -42 -13 -55.5t-56 -13.5q-42 0 -55.5 13.5t-13.5 55.5q0 43 13.5 56t55.5 13q43 0 56 -13t13 -56z" />
    <glyph glyph-name="ring" unicode="&#x2da;" horiz-adv-x="500" 
d="M381 715q0 -131 -131 -131t-131 131t131 131t131 -131zM308 715q0 36 -14.5 47t-43.5 11t-43.5 -11t-14.5 -47t15 -47.5t43 -11.5t43 11.5t15 47.5z" />
    <glyph glyph-name="ogonek" unicode="&#x2db;" horiz-adv-x="498" 
d="M326 -183l-95 -34q-62 48 -62 167h97q0 -43 12.5 -74.5t47.5 -58.5z" />
    <glyph glyph-name="tilde" unicode="&#x2dc;" horiz-adv-x="500" 
d="M384 724l46 -50q-59 -59 -113 -59q-37 0 -77 23q-31 18 -60 18q-34 0 -61 -24l-50 52q33 33 58 46t54 13q39 0 77 -23q33 -19 66 -19q36 0 60 23z" />
    <glyph glyph-name="hungarumlaut" unicode="&#x2dd;" horiz-adv-x="500" 
d="M260 782l-74 -106q-34 -48 -77 -48q-28 0 -28 26q0 10 4 22l38 106h137zM468 782l-74 -106q-34 -48 -77 -48q-28 0 -28 26q0 10 4 22l38 106h137z" />
    <glyph glyph-name="dotaccentcmb" unicode="&#x307;" horiz-adv-x="500" 
d="M315 687q0 -42 -13 -55.5t-56 -13.5q-42 0 -55.5 13.5t-13.5 55.5q0 43 13.5 56t55.5 13q43 0 56 -13t13 -56z" />
    <glyph glyph-name="Delta" unicode="&#x394;" horiz-adv-x="637" 
d="M631 0h-628l237 657q24 55 77 55q55 0 75 -54zM450 117l-130 405l-134 -405h264z" />
    <glyph glyph-name="Delta" unicode="&#x2206;" horiz-adv-x="637" 
d="M631 0h-628l237 657q24 55 77 55q55 0 75 -54zM450 117l-130 405l-134 -405h264z" />
    <glyph glyph-name="Omega" unicode="&#x3a9;" horiz-adv-x="657" 
d="M36 0v122h70q-67 76 -67 236v32q0 166 67.5 247t215.5 81q145 0 214 -82t69 -247v-54q0 -144 -63 -213h71v-122h-217q4 69 -9 135q42 24 60.5 86.5t18.5 136.5v17q0 51 -5 85.5t-19 67.5t-44 49.5t-76 16.5q-47 0 -77 -16.5t-44 -49.5t-18.5 -67.5t-4.5 -85.5v-17
q2 -188 84 -227q-12 -58 -9 -131h-217z" />
    <glyph glyph-name="Omega" unicode="&#x2126;" horiz-adv-x="657" 
d="M36 0v122h70q-67 76 -67 236v32q0 166 67.5 247t215.5 81q145 0 214 -82t69 -247v-54q0 -144 -63 -213h71v-122h-217q4 69 -9 135q42 24 60.5 86.5t18.5 136.5v17q0 51 -5 85.5t-19 67.5t-44 49.5t-76 16.5q-47 0 -77 -16.5t-44 -49.5t-18.5 -67.5t-4.5 -85.5v-17
q2 -188 84 -227q-12 -58 -9 -131h-217z" />
    <glyph glyph-name="pi" unicode="&#x3c0;" horiz-adv-x="592" 
d="M76 0v399h-51q-25 0 -25 31v91h515v-521h-129v399h-180v-399h-130z" />
    <glyph glyph-name="endash" unicode="&#x2013;" 
d="M493 225h-443v121h443v-121z" />
    <glyph glyph-name="emdash" unicode="&#x2014;" horiz-adv-x="1027" 
d="M968 226h-909v125h909v-125z" />
    <glyph glyph-name="quoteleft" unicode="&#x2018;" horiz-adv-x="273" 
d="M67 659v52q0 35 19.5 66.5t41.5 39.5v-64q0 -17 6 -24.5t22 -7.5q32 0 42.5 -10.5t10.5 -51.5q0 -44 -13.5 -57.5t-57.5 -13.5t-57.5 13.5t-13.5 57.5z" />
    <glyph glyph-name="quoteright" unicode="&#x2019;" horiz-adv-x="273" 
d="M209 643v-52q0 -35 -19.5 -66.5t-41.5 -39.5v64q0 17 -6 24.5t-22 7.5q-32 0 -42.5 10.5t-10.5 51.5q0 44 13.5 57.5t57.5 13.5t57.5 -13.5t13.5 -57.5z" />
    <glyph glyph-name="quotesinglbase" unicode="&#x201a;" horiz-adv-x="271" 
d="M209 54v-52q0 -35 -19.5 -66.5t-41.5 -39.5v64q0 17 -6 24.5t-22 7.5q-32 0 -42.5 10.5t-10.5 51.5q0 44 13.5 57.5t57.5 13.5t57.5 -13.5t13.5 -57.5z" />
    <glyph glyph-name="quotedblleft" unicode="&#x201c;" horiz-adv-x="482" 
d="M281 659v52q0 35 19.5 66.5t41.5 39.5v-64q0 -17 6 -24.5t22 -7.5q32 0 42.5 -10.5t10.5 -51.5q0 -44 -13.5 -57.5t-57.5 -13.5t-57.5 13.5t-13.5 57.5zM67 659v52q0 35 19.5 66.5t41.5 39.5v-64q0 -17 6 -24.5t22 -7.5q32 0 42.5 -10.5t10.5 -51.5q0 -44 -13.5 -57.5
t-57.5 -13.5t-57.5 13.5t-13.5 57.5z" />
    <glyph glyph-name="quotedblright" unicode="&#x201d;" horiz-adv-x="482" 
d="M209 643v-52q0 -35 -19.5 -66.5t-41.5 -39.5v64q0 17 -6 24.5t-22 7.5q-32 0 -42.5 10.5t-10.5 51.5q0 44 13.5 57.5t57.5 13.5t57.5 -13.5t13.5 -57.5zM423 643v-52q0 -35 -19.5 -66.5t-41.5 -39.5v64q0 17 -6 24.5t-22 7.5q-32 0 -42.5 10.5t-10.5 51.5q0 44 13.5 57.5
t57.5 13.5t57.5 -13.5t13.5 -57.5z" />
    <glyph glyph-name="quotedblbase" unicode="&#x201e;" horiz-adv-x="485" 
d="M209 54v-52q0 -35 -19.5 -66.5t-41.5 -39.5v64q0 17 -6 24.5t-22 7.5q-32 0 -42.5 10.5t-10.5 51.5q0 44 13.5 57.5t57.5 13.5t57.5 -13.5t13.5 -57.5zM423 54v-52q0 -35 -19.5 -66.5t-41.5 -39.5v64q0 17 -6 24.5t-22 7.5q-32 0 -42.5 10.5t-10.5 51.5q0 44 13.5 57.5
t57.5 13.5t57.5 -13.5t13.5 -57.5z" />
    <glyph glyph-name="dagger" unicode="&#x2020;" horiz-adv-x="579" 
d="M512 410h-135l-33 10l10 -40v-380h-130v380l10 40l-37 -10h-130v117h126l41 -10l-10 35v160h130v-162l-10 -33l33 10h135v-117z" />
    <glyph glyph-name="daggerdbl" unicode="&#x2021;" horiz-adv-x="579" 
d="M522 -6h-168v-185h-130v185h-167v117h167v299h-167v117h167v185h130v-185h168v-117h-168v-299h168v-117z" />
    <glyph glyph-name="bullet" unicode="&#x2022;" horiz-adv-x="493" 
d="M409 334q0 -84 -37.5 -123.5t-125.5 -39.5t-125.5 39.5t-37.5 123.5t37.5 123.5t125.5 39.5t125.5 -39.5t37.5 -123.5z" />
    <glyph glyph-name="ellipsis" unicode="&#x2026;" horiz-adv-x="885" 
d="M226 69q0 -50 -15.5 -66t-65.5 -16t-66 16t-16 66t16 65.5t66 15.5t65.5 -15.5t15.5 -65.5zM486 69q0 -50 -15.5 -66t-65.5 -16t-66 16t-16 66t16 65.5t66 15.5t65.5 -15.5t15.5 -65.5zM744 69q0 -50 -15.5 -66t-65.5 -16t-66 16t-16 66t16 65.5t66 15.5t65.5 -15.5
t15.5 -65.5z" />
    <glyph glyph-name="perthousand" unicode="&#x2030;" horiz-adv-x="1211" 
d="M798 250v-139q0 -117 -145 -117t-145 117v139q0 117 145 117t145 -117zM704 125v111q0 27 -12.5 37t-38.5 10t-38.5 -10t-12.5 -37v-111q0 -27 12.5 -37t38.5 -10t38.5 10t12.5 37zM1168 250v-139q0 -117 -145 -117t-145 117v139q0 117 145 117t145 -117zM1074 125v111
q0 27 -12.5 37t-38.5 10t-38.5 -10t-12.5 -37v-111q0 -27 12.5 -37t38.5 -10t38.5 10t12.5 37zM269 471v111q0 27 -12.5 37t-38.5 10t-38.5 -10t-12.5 -37v-111q0 -27 12.5 -37t38.5 -10t38.5 10t12.5 37zM363 596v-139q0 -117 -145 -117t-145 117v139q0 116 145 116h426
l-337 -712h-102l300 634h-147q5 -18 5 -38z" />
    <glyph glyph-name="guilsinglleft" unicode="&#x2039;" horiz-adv-x="350" 
d="M303 27l-194 173q-42 47 -42 77q0 31 44 75l192 171v-155l-114 -93l114 -93v-155z" />
    <glyph glyph-name="guilsinglright" unicode="&#x203a;" horiz-adv-x="350" 
d="M67 523l194 -173q42 -47 42 -77q0 -31 -44 -75l-192 -171v155l114 93l-114 93v155z" />
    <glyph glyph-name="fraction" unicode="&#x2044;" horiz-adv-x="208" 
d="M323 712l-337 -712h-101l337 712h101z" />
    <glyph glyph-name="Euro" unicode="&#x20ac;" horiz-adv-x="542" 
d="M10 400v96h49q14 110 69.5 166t169.5 56q99 0 161 -78q38 -46 44 -165h-129q-1 7 -3.5 28.5t-4 29t-6.5 23t-12 21.5t-19.5 11.5t-30.5 5.5q-84 0 -102 -98h83v-96h-90v-69h90v-96h-87q15 -117 106 -117q22 0 37 7t23 16.5t12 28t5 31.5t1 38t1 37h129q-2 -55 -4 -78.5
t-12.5 -62t-30.5 -63.5q-62 -78 -161 -78q-123 0 -178 59t-64 182h-46v96h44v69h-44z" />
    <glyph glyph-name="litre" unicode="&#x2113;" horiz-adv-x="484" 
d="M399 123l22 -112q-76 -27 -160 -27q-54 0 -96 38t-56 96q-31 -21 -43 -28l-39 107q40 24 52 39q-12 44 -12 167q0 31 3.5 63.5t11.5 71.5t23.5 72.5t38 62t57 45t77.5 16.5q60 0 106.5 -48t46.5 -124q0 -105 -51 -196.5t-165 -184.5q2 -31 20.5 -51t47.5 -20q84 0 116 13
zM195 299q114 140 114 230q0 78 -51 78q-42 0 -59.5 -99.5t-3.5 -208.5z" />
    <glyph glyph-name="trademark" unicode="&#x2122;" horiz-adv-x="924" 
d="M860 285h-95v252l-80 -157q-14 -26 -42 -26q-30 0 -42 26l-80 157v-252h-95v427h95l104 -195q9 -16 18 -16t18 17l104 194h95v-427zM360 627h-110v-342h-95v342h-110v85h315v-85z" />
    <glyph glyph-name="estimated" unicode="&#x212e;" horiz-adv-x="1007" 
d="M917 341h-670q-6 0 -6 -5v-202q0 -16 10 -23q108 -111 253 -111q78 0 147 33t119 90h61q-57 -67 -143.5 -105.5t-184.5 -38.5q-172 0 -292.5 108.5t-120.5 263.5q0 154 120.5 263t292.5 109q171 0 292.5 -109t121.5 -263v-10zM765 367v205q0 12 -10 24q-108 106 -251 106
q-144 0 -252 -110q-11 -10 -11 -25v-200q0 -6 6 -6h513q5 0 5 6z" />
    <glyph glyph-name="partialdiff" unicode="&#x2202;" horiz-adv-x="555" 
d="M371 152v218q-46 33 -99 30q-98 -6 -98 -145q0 -70 21 -102t77 -32q5 1 18 2t17 1.5t14 2.5t14.5 3.5t12 4.5t13 7.5t10.5 9.5zM371 487q0 53 -33.5 93.5t-92.5 40.5q-39 0 -88 -12l-45 107q95 21 155 21q111 0 172.5 -69t61.5 -238v-321q-101 -115 -229 -115
q-124 0 -176 69.5t-52 191.5q0 48 7.5 88.5t26.5 82.5t58.5 66.5t97.5 24.5q89 0 137 -30z" />
    <glyph glyph-name="product" unicode="&#x220f;" horiz-adv-x="833" 
d="M602 -170h-139v760h-241v-760h-139v883h519v-883z" />
    <glyph glyph-name="summation" unicode="&#x2211;" horiz-adv-x="569" 
d="M522 -171h-478l-1 102l186 349l-190 330v102h471v-115h-308l131 -228q23 -39 23 -85q0 -41 -21 -89l-131 -251h317z" />
    <glyph glyph-name="minus" unicode="&#x2212;" 
d="M493 225h-443v121h443v-121z" />
    <glyph glyph-name="radical" unicode="&#x221a;" horiz-adv-x="691" 
d="M647 588h-185l-182 -588h-105l-141 392h141l53 -164l133 484h286v-124z" />
    <glyph glyph-name="infinity" unicode="&#x221e;" horiz-adv-x="729" 
d="M688 309q0 -73 -39 -118t-116 -45q-96 0 -167 81q-71 -81 -166 -81q-77 0 -116 45t-39 118t39 119t116 46q94 0 166 -82q72 82 167 82q77 0 116 -46t39 -119zM583 309q0 31 -15 48.5t-41 17.5q-48 0 -102 -66q54 -65 102 -65q26 0 41 17t15 48zM298 309q-54 67 -102 67
q-26 0 -40.5 -18t-14.5 -49t14.5 -48t40.5 -17q48 0 102 65z" />
    <glyph glyph-name="integral" unicode="&#x222b;" horiz-adv-x="480" 
d="M433 615h-49q-36 0 -53.5 -13.5t-17.5 -47.5v-569q0 -171 -171 -171h-85v110h49q36 0 53.5 13t17.5 47v569q0 172 171 172h85v-110z" />
    <glyph glyph-name="approxequal" unicode="&#x2248;" horiz-adv-x="606" 
d="M486 475l83 -82q-47 -47 -83.5 -66.5t-81.5 -19.5q-55 0 -117 33q-46 24 -82 24q-44 0 -86 -42l-82 82q48 48 83.5 67t80.5 19q55 0 117 -33q48 -25 81 -25q44 0 87 43zM487 249l82 -82q-48 -48 -83.5 -67t-80.5 -19q-55 0 -117 33q-48 25 -81 25q-44 0 -87 -43l-83 82
q47 47 84 66.5t82 19.5q54 0 116 -33q46 -24 82 -24q44 0 86 42z" />
    <glyph glyph-name="notequal" unicode="&#x2260;" horiz-adv-x="602" 
d="M552 116h-320l-103 -129l-79 62l55 67h-55v122h149l78 95h-227v122h320l103 129l79 -62l-55 -67h55v-122h-148l-78 -95h226v-122z" />
    <glyph glyph-name="lessequal" unicode="&#x2264;" horiz-adv-x="544" 
d="M445 287v-130l-385 179v106l385 178v-130l-252 -102zM493 0h-443v122h443v-122z" />
    <glyph glyph-name="greaterequal" unicode="&#x2265;" horiz-adv-x="550" 
d="M98 157v130l252 101l-252 102v130l385 -178v-106zM493 0h-443v122h443v-122z" />
    <glyph glyph-name="lozenge" unicode="&#x25ca;" horiz-adv-x="634" 
d="M581 351l-200 -330q-32 -41 -64 -41t-61 41l-201 330l193 327q34 42 71 42t70 -42zM435 351l-117 224l-117 -224l117 -215z" />
    <glyph glyph-name="ff" unicode="&#xfb00;" horiz-adv-x="675" 
d="M637 450h-106v-450h-130v450h-192v-450h-130v450h-54v99h54v55q0 61 39 105t113 44h84v-110h-61q-45 0 -45 -47v-47h192v55q0 61 39 105t113 44h84v-110h-61q-45 0 -45 -47v-47h106v-99z" />
    <glyph glyph-name="fi" unicode="&#xfb01;" horiz-adv-x="602" 
d="M529 0h-130v450h-190v-450h-130v450h-54v99h54v55q0 61 39 105t113 44h84v-110h-61q-45 0 -45 -47v-47h320v-549zM541 712q0 -47 -14.5 -61.5t-60.5 -14.5t-61 15t-15 61t14.5 60.5t61.5 14.5q46 0 60.5 -14.5t14.5 -60.5z" />
    <glyph glyph-name="fl" unicode="&#xfb02;" horiz-adv-x="598" 
d="M529 0h-130v643h-145q-45 0 -45 -47v-47h106v-99h-106v-450h-130v450h-54v99h54v55q0 61 39 104.5t113 43.5h298v-752z" />
    <glyph glyph-name="ffi" unicode="&#xfb03;" horiz-adv-x="911" 
d="M860 712q0 -47 -14.5 -61.5t-60.5 -14.5q-47 0 -61.5 15t-14.5 61t14.5 60.5t61.5 14.5t61 -14.5t14 -60.5zM848 0h-130v450h-190v-450h-130v450h-189v-450h-130v450h-54v99h54v55q0 61 39 105t113 44h84v-110h-61q-45 0 -45 -47v-47h189v55q0 61 39 105t113 44h84v-110
h-61q-45 0 -45 -47v-47h320v-549z" />
    <glyph glyph-name="ffl" unicode="&#xfb04;" horiz-adv-x="906" 
d="M847 0l-130 -1v644h-145q-45 0 -45 -47v-47h106v-99h-106v-450h-130v450h-188v-450h-130v450h-54v99h54v55q0 61 39 105t113 44h84v-110h-61q-45 0 -45 -47v-47h188v55q0 61 39 104.5t113 43.5h298v-752z" />
    <glyph glyph-name="fj" horiz-adv-x="698" 
d="M541 712q0 -47 -14.5 -61.5t-60.5 -14.5t-61 15t-15 61t14.5 60.5t61.5 14.5q46 0 60.5 -14.5t14.5 -60.5zM529 549v-570q0 -61 -38.5 -105t-113.5 -44h-74v110h50q46 0 46 47v463h-190v-450h-130v450h-54v99h54v55q0 61 39 105t113 44h84v-110h-61q-45 0 -45 -47v-47
h320z" />
    <glyph glyph-name="commaaccent" horiz-adv-x="232" 
d="M178 351v-85q0 -59 -42.5 -111t-90.5 -71v267h133z" />
    <glyph glyph-name="foundryicon" horiz-adv-x="1241" 
d="M186 157l-146 143l146 141l40 -32l-88 -84h248q-6 30 -6 62q0 82 42.5 132t112.5 50q49 0 78.5 -16.5t54.5 -51.5q46 68 136 68q71 0 112 -50t41 -132q0 -27 -7 -62h201v116h50v-284h-50v116h-216q-40 -102 -131 -176t-137 -74q-49 0 -138 73.5t-128 176.5h-262l87 -85z
M668 73q27 4 66 30.5t77.5 66.5t66 96.5t27.5 111.5q0 66 -30 104.5t-85 38.5q-83 0 -114 -84h-16q-31 84 -114 84q-54 0 -84 -39t-30 -106q0 -24 5 -51h198v-52h-180q33 -77 99.5 -135t113.5 -65z" />
    <glyph glyph-name="CR" horiz-adv-x="0" 
 />
    <glyph glyph-name="a.alt" horiz-adv-x="534" 
d="M264 472q-61 0 -86.5 -20.5t-25.5 -69.5h-108q0 96 55.5 146.5t164.5 50.5t167.5 -53.5t58.5 -141.5v-384h-96l-30 65l-148 -70q-78 0 -130 44.5t-52 123.5q0 70 46.5 123t137.5 53h143v44q0 89 -97 89zM361 169v74h-123q-41 0 -62 -22t-21 -55q0 -28 19.5 -46.5
t56.5 -18.5z" />
    <glyph glyph-name="agrave.alt" horiz-adv-x="534" 
d="M187 676l-74 106h137l38 -106q4 -12 4 -22q0 -26 -28 -26q-43 0 -77 48zM264 472q-61 0 -86.5 -20.5t-25.5 -69.5h-108q0 96 55.5 146.5t164.5 50.5t167.5 -53.5t58.5 -141.5v-384h-96l-30 65l-148 -70q-78 0 -130 44.5t-52 123.5q0 70 46.5 123t137.5 53h143v44
q0 89 -97 89zM361 169v74h-123q-41 0 -62 -22t-21 -55q0 -28 19.5 -46.5t56.5 -18.5z" />
    <glyph glyph-name="acircumflex.alt" horiz-adv-x="534" 
d="M261 718l-45 -56q-39 -48 -77 -48q-13 0 -21 9t-8 22q0 9 5 17l94 121h104l94 -121q5 -8 5 -17q0 -12 -8.5 -21.5t-20.5 -9.5q-38 0 -77 48zM264 472q-61 0 -86.5 -20.5t-25.5 -69.5h-108q0 96 55.5 146.5t164.5 50.5t167.5 -53.5t58.5 -141.5v-384h-96l-30 65l-148 -70
q-78 0 -130 44.5t-52 123.5q0 70 46.5 123t137.5 53h143v44q0 89 -97 89zM361 169v74h-123q-41 0 -62 -22t-21 -55q0 -28 19.5 -46.5t56.5 -18.5z" />
    <glyph glyph-name="aacute.alt" horiz-adv-x="534" 
d="M402 782l-74 -106q-34 -48 -77 -48q-28 0 -28 26q0 10 4 22l38 106h137zM264 472q-61 0 -86.5 -20.5t-25.5 -69.5h-108q0 96 55.5 146.5t164.5 50.5t167.5 -53.5t58.5 -141.5v-384h-96l-30 65l-148 -70q-78 0 -130 44.5t-52 123.5q0 70 46.5 123t137.5 53h143v44
q0 89 -97 89zM361 169v74h-123q-41 0 -62 -22t-21 -55q0 -28 19.5 -46.5t56.5 -18.5z" />
    <glyph glyph-name="adieresis.alt" horiz-adv-x="534" 
d="M441 694q0 -39 -17.5 -53t-49.5 -14t-49.5 14t-17.5 53t17.5 53t49.5 14t49.5 -14t17.5 -53zM215 694q0 -39 -17.5 -53t-49.5 -14t-49.5 14t-17.5 53t17.5 53t49.5 14t49.5 -14t17.5 -53zM264 472q-61 0 -86.5 -20.5t-25.5 -69.5h-108q0 96 55.5 146.5t164.5 50.5
t167.5 -53.5t58.5 -141.5v-384h-96l-30 65l-148 -70q-78 0 -130 44.5t-52 123.5q0 70 46.5 123t137.5 53h143v44q0 89 -97 89zM361 169v74h-123q-41 0 -62 -22t-21 -55q0 -28 19.5 -46.5t56.5 -18.5z" />
    <glyph glyph-name="atilde.alt" horiz-adv-x="534" 
d="M264 472q-61 0 -86.5 -20.5t-25.5 -69.5h-108q0 96 55.5 146.5t164.5 50.5t167.5 -53.5t58.5 -141.5v-384h-96l-30 65l-148 -70q-78 0 -130 44.5t-52 123.5q0 70 46.5 123t137.5 53h143v44q0 89 -97 89zM361 169v74h-123q-41 0 -62 -22t-21 -55q0 -28 19.5 -46.5
t56.5 -18.5zM395 724l46 -50q-59 -59 -113 -59q-37 0 -77 23q-31 18 -60 18q-34 0 -61 -24l-50 52q33 33 58 46t54 13q39 0 77 -23q33 -19 66 -19q36 0 60 23z" />
    <glyph glyph-name="aring.alt" horiz-adv-x="534" 
d="M395 715q0 -131 -131 -131t-131 131t131 131t131 -131zM322 715q0 36 -14.5 47t-43.5 11t-43.5 -11t-14.5 -47t15 -47.5t43 -11.5t43 11.5t15 47.5zM264 472q-61 0 -86.5 -20.5t-25.5 -69.5h-108q0 96 55.5 146.5t164.5 50.5t167.5 -53.5t58.5 -141.5v-384h-96l-30 65
l-148 -70q-78 0 -130 44.5t-52 123.5q0 70 46.5 123t137.5 53h143v44q0 89 -97 89zM361 169v74h-123q-41 0 -62 -22t-21 -55q0 -28 19.5 -46.5t56.5 -18.5z" />
  </font>
</defs>
</svg>
